<?xml version="1.0" standalone="no"?>
<!DOCTYPE svg PUBLIC "-//W3C//DTD SVG 20010904//EN"
 "http://www.w3.org/TR/2001/REC-SVG-20010904/DTD/svg10.dtd">
<svg version="1.0" xmlns="http://www.w3.org/2000/svg"
 width="1024.000000pt" height="1024.000000pt" viewBox="0 0 1024.000000 1024.000000"
 preserveAspectRatio="xMidYMid meet">
<metadata>
Created by potrace 1.14, written by Peter Selinger 2001-2017
</metadata>
<g transform="translate(0.000000,1024.000000) scale(0.100000,-0.100000)"
fill="#000000" stroke="none">
<path d="M3208 8275 c-73 -40 -222 -382 -280 -640 -19 -83 -22 -130 -22 -280
0 -167 2 -186 27 -268 30 -96 88 -219 134 -282 l30 -40 -30 -89 -30 -89 -132
-131 c-142 -141 -207 -229 -280 -381 -134 -280 -169 -591 -98 -892 l16 -72
-50 -108 c-62 -131 -89 -218 -108 -343 -36 -237 2 -481 107 -696 l40 -81 -40
-84 c-88 -182 -117 -318 -116 -529 1 -206 35 -352 121 -523 l34 -69 -40 -61
c-93 -145 -103 -293 -31 -438 40 -78 111 -145 200 -188 l75 -36 2310 0 2310 0
67 23 c216 75 377 283 423 547 19 111 19 189 0 300 -22 123 -66 229 -146 351
l-69 105 34 67 c87 172 126 341 126 539 0 194 -37 349 -125 524 l-36 73 39 85
c83 179 112 310 112 506 0 268 -70 481 -232 705 l-62 85 -7 270 c-5 242 -8
277 -29 340 -31 97 -80 191 -140 269 l-51 66 32 46 c43 63 93 175 115 259 27
99 27 383 1 505 -52 240 -206 600 -277 648 -29 20 -43 23 -85 18 -102 -12
-339 -94 -495 -172 -217 -107 -419 -281 -510 -437 -37 -64 -49 -76 -65 -72
-11 3 -54 15 -95 27 -64 18 -102 22 -250 22 -152 1 -187 -2 -262 -22 l-87 -23
-53 40 c-149 112 -346 155 -533 116 -94 -20 -221 -84 -289 -146 l-54 -50 -31
58 c-128 239 -373 430 -726 569 -118 46 -290 94 -334 94 -14 -1 -38 -7 -53
-15z m242 -290 c300 -105 540 -273 633 -443 l28 -52 -34 0 c-106 0 -324 -58
-442 -118 -126 -63 -264 -175 -353 -285 l-57 -70 -23 53 c-55 127 -70 312 -37
485 29 155 145 465 173 465 6 0 56 -16 112 -35z m3591 -50 c128 -273 175 -571
120 -770 -21 -76 -86 -205 -103 -205 -5 0 -25 8 -46 19 -20 10 -130 49 -243
86 l-206 69 -39 55 c-68 99 -177 205 -302 297 -13 9 66 122 133 190 87 89 194
163 324 227 83 40 283 115 309 116 7 1 31 -37 53 -84z m-2090 -421 c70 -21
110 -46 186 -116 75 -70 93 -72 225 -28 112 38 241 52 351 40 257 -30 443
-143 617 -376 38 -51 80 -100 92 -108 13 -9 115 -46 228 -82 113 -36 238 -81
277 -100 90 -43 194 -143 240 -230 58 -109 65 -152 70 -439 2 -143 6 -269 8
-281 3 -12 39 -70 81 -129 130 -183 184 -314 205 -493 22 -186 -22 -389 -123
-565 -64 -112 -65 -140 -13 -221 98 -154 146 -317 146 -503 0 -188 -39 -328
-138 -491 -67 -111 -66 -124 40 -280 47 -70 97 -151 111 -179 104 -209 58
-508 -100 -652 -97 -89 131 -81 -2412 -81 l-2255 0 -43 25 c-73 43 -105 145
-67 218 9 18 40 67 70 110 72 105 73 132 9 240 -51 85 -89 179 -113 273 -26
105 -23 343 6 449 23 86 74 202 122 277 44 68 42 111 -9 195 -55 91 -87 167
-114 266 -30 109 -32 346 -4 447 28 103 72 210 116 280 48 78 49 99 14 235
-35 135 -43 322 -20 454 49 281 176 495 413 692 l81 68 51 154 c98 292 219
447 441 561 141 73 205 87 435 95 110 4 207 11 216 15 9 4 54 48 99 97 46 50
99 102 120 115 93 61 229 81 341 48z"/>
<path d="M4773 4570 c-57 -34 -66 -66 -61 -215 3 -124 5 -135 36 -197 39 -79
107 -150 174 -181 l49 -22 -3 -78 c-3 -72 -6 -81 -31 -103 -63 -54 -167 -11
-167 69 0 40 -35 96 -70 114 -47 24 -97 16 -138 -21 -36 -33 -37 -37 -37 -103
0 -169 142 -316 319 -330 74 -6 154 14 211 53 31 21 42 24 55 15 8 -6 40 -24
70 -39 47 -23 68 -27 140 -27 76 0 93 4 152 33 120 59 192 170 193 295 0 66
-1 70 -37 103 -41 37 -91 45 -138 21 -35 -18 -70 -74 -70 -114 0 -80 -104
-123 -167 -69 -25 22 -28 31 -31 103 l-3 78 49 22 c67 31 135 102 174 181 31
62 33 73 36 197 5 149 -4 181 -61 215 -30 19 -52 20 -322 20 -270 0 -292 -1
-322 -20z m457 -256 c0 -65 -69 -134 -135 -134 -66 0 -135 69 -135 134 l0 26
135 0 135 0 0 -26z"/>
</g>
</svg>
