<?xml version="1.0" standalone="no"?>
<!DOCTYPE svg PUBLIC "-//W3C//DTD SVG 20010904//EN"
 "http://www.w3.org/TR/2001/REC-SVG-20010904/DTD/svg10.dtd">
<svg version="1.0" xmlns="http://www.w3.org/2000/svg"
 width="1024.000000pt" height="1024.000000pt" viewBox="0 0 1024.000000 1024.000000"
 preserveAspectRatio="xMidYMid meet">
<metadata>
Created by potrace 1.14, written by Peter Selinger 2001-2017
</metadata>
<g transform="translate(0.000000,1024.000000) scale(0.100000,-0.100000)"
fill="#000000" stroke="none">
<path d="M3090 9154 c-122 -32 -240 -117 -305 -219 -33 -51 -233 -495 -279
-618 -61 -162 -109 -509 -110 -792 -1 -297 30 -481 115 -684 22 -53 85 -228
139 -389 l99 -294 -48 -66 c-147 -203 -259 -477 -306 -746 -25 -144 -30 -328
-12 -414 46 -211 188 -378 381 -448 l61 -22 5 -798 c6 -856 6 -851 60 -1051
51 -187 186 -445 323 -617 263 -330 713 -570 1131 -602 l89 -7 51 -50 c110
-107 246 -184 402 -229 115 -33 344 -33 458 0 154 44 282 116 401 224 l60 55
85 7 c265 21 577 138 802 299 205 147 334 288 465 510 97 164 138 253 178 392
60 207 59 191 65 1064 l5 803 63 23 c134 49 254 154 320 283 59 115 67 156 66
327 -1 341 -104 669 -305 967 l-67 101 33 91 c18 50 67 183 108 296 60 165 81
241 110 390 70 356 97 574 97 796 0 183 -6 215 -81 470 -46 157 -83 255 -168
447 -120 269 -144 310 -224 383 -201 184 -507 175 -703 -20 -72 -72 -128 -179
-143 -276 -7 -42 -11 -395 -11 -996 l0 -931 -75 18 c-156 37 -229 39 -1320 39
-1118 0 -1158 -1 -1321 -44 l-54 -14 0 941 c0 770 -3 954 -14 1008 -60 281
-354 465 -626 393z m215 -293 c51 -23 93 -65 116 -116 18 -38 19 -91 19 -1037
l0 -998 -77 -39 c-101 -51 -243 -144 -326 -215 -36 -30 -68 -52 -71 -47 -3 4
-32 82 -65 172 -33 90 -78 208 -100 262 -176 425 -194 858 -55 1290 45 138
257 621 293 667 60 75 176 102 266 61z m3837 -17 c79 -55 209 -297 278 -519
75 -238 112 -588 90 -835 -30 -342 -98 -683 -182 -915 -34 -93 -63 -172 -64
-173 -1 -2 -31 21 -66 50 -81 68 -241 174 -335 222 l-73 36 0 998 c0 946 1
999 19 1037 42 91 119 137 223 133 55 -3 75 -9 110 -34z m-961 -2264 c613 -62
1132 -481 1317 -1060 52 -165 66 -251 67 -415 0 -144 -1 -152 -27 -201 -45
-85 -136 -154 -205 -154 -97 0 -188 -73 -219 -175 -16 -50 -18 -84 -14 -205 2
-80 4 -458 5 -840 l0 -695 -32 -115 c-113 -412 -387 -743 -757 -915 -97 -45
-230 -91 -298 -101 -40 -7 -41 -6 -34 17 36 124 37 160 33 995 -3 926 3 855
-87 1041 -114 235 -310 401 -565 479 -82 25 -104 28 -250 28 -146 0 -168 -3
-250 -28 -304 -93 -526 -315 -622 -621 l-28 -90 -3 -814 c-3 -827 -1 -868 34
-989 8 -29 -10 -29 -122 4 -242 69 -445 194 -624 380 -145 151 -247 322 -314
525 -67 203 -67 208 -66 1118 1 530 -2 827 -9 849 -27 89 -106 152 -191 152
-91 0 -172 55 -225 151 -27 49 -30 65 -33 164 -5 137 23 312 73 461 192 576
707 992 1300 1053 122 13 2023 13 2146 1z m-906 -2617 c153 -38 318 -169 388
-309 75 -149 72 -113 72 -844 0 -654 0 -655 -22 -696 -28 -52 -90 -108 -138
-124 -100 -33 -223 13 -280 104 l-30 49 -3 426 -3 425 129 131 c168 170 172
175 172 241 0 45 -5 59 -30 88 -37 42 -85 60 -137 50 -31 -6 -60 -29 -158
-125 l-121 -118 -114 115 c-127 127 -158 143 -229 124 -43 -11 -87 -55 -97
-96 -4 -14 -4 -44 -1 -66 5 -37 20 -56 151 -187 l146 -146 0 -420 c0 -401 -1
-422 -21 -465 -27 -60 -54 -88 -114 -116 -135 -64 -288 5 -330 150 -14 48 -16
130 -12 683 3 565 5 634 21 688 31 106 84 194 166 275 162 163 368 219 595
163z m-114 -2148 c78 -70 224 -125 334 -125 28 0 78 6 113 14 34 7 62 10 62 6
0 -4 -17 -33 -38 -66 -78 -120 -221 -223 -360 -259 -74 -19 -228 -21 -298 -4
-101 24 -211 86 -288 162 -67 66 -135 161 -124 173 3 2 18 0 33 -6 54 -20 175
-23 249 -6 81 19 192 75 231 117 16 16 33 29 38 29 5 0 27 -16 48 -35z"/>
</g>
</svg>
