<?xml version="1.0" standalone="no"?>
<!DOCTYPE svg PUBLIC "-//W3C//DTD SVG 20010904//EN"
 "http://www.w3.org/TR/2001/REC-SVG-20010904/DTD/svg10.dtd">
<svg version="1.0" xmlns="http://www.w3.org/2000/svg"
 width="1024.000000pt" height="1024.000000pt" viewBox="0 0 1024.000000 1024.000000"
 preserveAspectRatio="xMidYMid meet">
<metadata>
Created by potrace 1.14, written by Peter Selinger 2001-2017
</metadata>
<g transform="translate(0.000000,1024.000000) scale(0.100000,-0.100000)"
fill="#000000" stroke="none">
<path d="M4653 8115 c-83 -18 -182 -69 -248 -128 l-55 -48 -62 23 c-86 31
-272 33 -363 3 -115 -37 -237 -136 -304 -247 l-22 -37 -92 1 c-109 0 -170 -13
-253 -53 -88 -41 -163 -106 -217 -186 -63 -92 -88 -167 -94 -283 l-6 -95 -64
-40 c-197 -121 -299 -360 -252 -587 28 -137 137 -288 257 -358 l59 -35 7 -90
c4 -49 8 -104 9 -121 2 -27 -41 -79 -393 -479 -217 -247 -405 -462 -417 -479
-28 -37 -29 -75 -3 -109 25 -31 197 -117 303 -151 250 -81 516 -79 753 5 47
17 87 29 88 27 2 -2 17 -48 35 -103 18 -55 79 -194 136 -310 152 -307 186
-422 211 -720 17 -201 34 -294 81 -430 48 -141 91 -177 163 -140 52 27 52 64
2 207 -40 113 -60 220 -72 394 -19 277 -76 468 -224 759 -98 193 -150 333
-188 505 -20 92 -22 134 -23 335 0 127 3 241 7 255 7 24 10 25 100 26 l93 2
30 -50 c63 -106 194 -203 324 -242 99 -29 258 -20 353 21 l36 15 64 -53 c192
-160 456 -181 663 -51 42 26 52 29 65 18 8 -8 44 -28 79 -46 203 -101 446 -66
623 90 l48 42 57 -23 c81 -31 247 -38 329 -14 136 39 280 147 335 251 l24 43
92 -1 93 -2 7 -35 c5 -20 8 -135 8 -256 -1 -190 -4 -234 -24 -325 -37 -172
-86 -304 -190 -510 -151 -298 -201 -469 -221 -751 -21 -304 -79 -487 -223
-702 -187 -280 -501 -483 -837 -541 -145 -25 -130 -45 -130 171 l0 188 187
187 c175 175 187 190 187 224 0 48 -39 84 -91 84 -33 0 -49 -14 -204 -167
l-169 -167 -169 167 c-155 153 -171 167 -204 167 -52 0 -91 -36 -91 -84 0 -34
12 -49 187 -224 l187 -187 0 -188 c0 -216 15 -196 -130 -171 -304 52 -573 212
-791 472 -31 36 -41 42 -76 42 -50 0 -87 -35 -87 -84 0 -56 135 -208 290 -328
428 -329 1029 -390 1519 -153 346 167 611 466 738 831 47 135 64 227 82 441
16 195 49 349 100 478 16 39 69 151 120 250 50 100 106 227 124 285 19 58 35
106 37 108 1 2 41 -10 88 -27 237 -84 503 -86 753 -5 106 34 278 120 303 151
26 34 25 72 -2 109 -13 17 -201 232 -418 479 -354 402 -395 451 -393 479 2 17
6 72 9 122 l6 90 47 25 c25 13 78 56 117 94 257 254 205 679 -108 872 l-58 36
0 52 c0 68 -13 136 -40 209 -18 48 -28 60 -56 72 -42 18 -78 10 -104 -23 -25
-32 -25 -54 1 -128 19 -52 21 -73 15 -166 -6 -98 -5 -108 15 -133 11 -14 26
-26 32 -26 31 0 137 -62 180 -105 117 -120 144 -299 66 -446 -41 -77 -104
-133 -195 -175 -98 -46 -108 -63 -97 -154 24 -183 -55 -338 -210 -411 -85 -39
-164 -47 -262 -24 -74 18 -76 18 -102 -1 -29 -22 -29 -22 -68 -106 -49 -107
-152 -184 -277 -209 -76 -15 -164 0 -251 46 -88 45 -111 45 -151 -2 -64 -77
-116 -121 -172 -149 -53 -26 -69 -29 -159 -29 -87 0 -107 3 -156 26 -31 15
-74 42 -95 61 -78 70 -106 71 -182 5 -26 -22 -72 -52 -102 -66 -48 -23 -68
-26 -155 -26 -89 0 -106 3 -156 27 -56 28 -104 69 -170 146 -44 52 -67 53
-151 8 -165 -91 -345 -62 -470 73 -31 33 -62 79 -72 107 -36 96 -64 112 -158
89 -183 -45 -364 37 -445 203 -26 54 -28 65 -28 188 0 148 -6 163 -74 185 -92
30 -187 113 -229 199 -89 186 -1 425 186 506 80 35 84 38 105 66 18 24 18 31
7 98 -29 171 51 330 203 405 94 46 168 54 271 30 70 -17 77 -17 100 -1 14 9
41 49 59 89 44 93 91 146 164 185 125 66 243 65 379 -5 80 -41 110 -40 147 4
71 86 106 116 166 146 60 29 74 32 161 32 116 0 167 -17 252 -86 85 -68 105
-68 186 -2 78 64 132 85 229 91 138 8 241 -40 333 -155 54 -68 83 -75 154 -35
83 47 158 66 240 59 136 -12 257 -100 316 -230 44 -97 70 -113 152 -91 77 20
167 18 238 -7 35 -12 71 -18 85 -15 63 16 88 101 42 144 -45 42 -132 65 -253
66 l-111 1 -29 49 c-35 59 -135 153 -199 189 -135 76 -304 92 -449 43 l-78
-27 -53 50 c-98 93 -213 136 -365 136 -120 0 -199 -22 -291 -79 -52 -34 -54
-34 -79 -16 -122 86 -285 118 -437 85z m-1554 -2521 c25 -26 69 -62 98 -82 30
-19 52 -41 49 -47 -2 -7 -10 -66 -17 -131 -12 -119 -7 -358 10 -456 l8 -47
-46 -19 c-77 -33 -134 -50 -227 -68 -166 -31 -400 -1 -563 72 l-64 29 349 397
c192 219 351 397 354 398 3 0 25 -21 49 -46z m4447 -354 l347 -395 -64 -29
c-163 -73 -397 -103 -563 -72 -93 18 -150 35 -227 68 l-46 19 8 47 c17 98 22
337 10 456 -7 65 -15 124 -17 131 -3 6 19 28 49 47 29 20 73 56 98 82 24 25
47 45 50 43 4 -1 163 -180 355 -397z"/>
<path d="M4045 4936 c-73 -32 -127 -101 -165 -212 -57 -164 -22 -377 80 -488
76 -83 170 -101 256 -51 157 92 216 405 114 606 -65 126 -187 188 -285 145z"/>
<path d="M6045 4932 c-153 -72 -229 -333 -160 -549 45 -141 131 -224 233 -225
65 0 112 23 165 82 106 118 135 334 68 511 -61 159 -190 236 -306 181z"/>
</g>
</svg>
