<svg width="24" height="24" viewBox="0 0 24 24" fill="none" xmlns="http://www.w3.org/2000/svg">
<path d="M4 7H20.3782M19.3546 7L18.4671 19.142C18.4303 19.6466 18.1992 20.1188 17.8203 20.4636C17.4413 20.8083 16.9427 21 16.4249 21H7.95329C7.43547 21 6.93689 20.8083 6.55796 20.4636C6.17902 20.1188 5.9479 19.6466 5.91113 19.142L5.02364 7H19.3546ZM10.1418 11V17V11ZM14.2364 11V17V11ZM15.26 7V4C15.26 3.73478 15.1522 3.48043 14.9602 3.29289C14.7682 3.10536 14.5079 3 14.2364 3H10.1418C9.87035 3 9.60998 3.10536 9.41801 3.29289C9.22604 3.48043 9.11819 3.73478 9.11819 4V7H15.26Z" stroke="#D4D4D4" stroke-width="2" stroke-linecap="round" stroke-linejoin="round"/>
</svg>
