<svg width="24" height="24" viewBox="0 0 24 24" fill="none" xmlns="http://www.w3.org/2000/svg">
<path d="M20.9141 15.1239C21.0808 15.7269 21.0029 16.3587 20.6949 16.9031C20.0595 18.0258 18.6293 18.4229 17.5067 17.7882C17.1318 17.5763 16.9991 17.0996 17.2104 16.7234C17.4216 16.3473 17.8968 16.2141 18.2717 16.4261C18.8697 16.7671 19.5986 16.2084 19.4125 15.5419C19.357 15.3412 19.2263 15.174 19.0444 15.0712L18.994 15.0425C18.1969 14.5884 17.7618 13.7098 17.8854 12.8042C17.9613 12.2497 17.9594 11.6756 17.8792 11.1217C17.6868 9.97889 18.5345 9.10935 19.042 8.84001C19.2262 8.73584 19.3569 8.56871 19.4125 8.36797C19.4677 8.16839 19.4418 7.95917 19.3398 7.77878C19.1273 7.40333 18.6481 7.2709 18.2717 7.48376C18.2717 7.48376 17.6488 7.81295 17.1423 7.81295C16.6327 7.81295 16.1234 7.65172 15.7021 7.31331C15.2422 6.94395 14.7328 6.64607 14.188 6.42798C13.3321 6.08531 12.779 5.26923 12.779 4.34892V4.33317C12.7362 3.29622 11.2635 3.29626 11.2207 4.33317C11.2207 5.25856 10.6635 6.07632 9.80102 6.41644C9.25027 6.63368 8.73521 6.9323 8.27009 7.30405C7.44029 7.99391 6.30116 7.86489 5.72579 7.4824C5.35157 7.2709 4.8725 7.40325 4.65999 7.77871C4.44069 8.15166 4.59434 8.64278 4.96997 8.84692C5.76713 9.30118 6.21429 10.2116 6.08288 11.1125C6.04108 11.3991 6.01985 11.6924 6.01985 11.9842C6.01985 12.264 6.03933 12.5452 6.07766 12.8201C6.2042 13.7271 5.76923 14.6074 4.96966 15.063L4.9577 15.0698C4.77347 15.174 4.64281 15.3411 4.58729 15.5418C4.53209 15.7414 4.55792 15.9506 4.65999 16.131C4.8725 16.5065 5.35164 16.6389 5.72809 16.426C6.10298 16.2142 6.57815 16.3472 6.78938 16.7234C7.00061 17.0995 6.86796 17.5762 6.49307 17.7881C6.13045 17.9931 5.73565 18.0904 5.34603 18.0905C4.5294 18.0905 3.73505 17.663 3.30492 16.903C2.99684 16.3587 2.91896 15.7268 3.0857 15.1238C3.25275 14.5198 3.64506 14.0173 4.19039 13.709C4.42721 13.5741 4.5712 13.3007 4.53442 13.0368C4.43528 12.3276 4.43742 11.5945 4.54101 10.886C4.58012 10.6179 4.43103 10.3377 4.18828 10.1995C3.08219 9.60417 2.66149 8.08963 3.30492 7.00668C3.94028 5.88402 5.37042 5.48694 6.49303 6.12154C6.66756 6.23399 7.025 6.31619 7.29907 6.08113C7.88566 5.61229 8.53563 5.23554 9.23087 4.96132C9.49302 4.85789 9.66241 4.6113 9.66241 4.33305C9.79097 1.22157 14.2095 1.22306 14.3373 4.33305C14.3373 4.60978 14.5054 4.87157 14.7656 4.9757C15.4533 5.25102 16.096 5.62683 16.676 6.09266C16.9571 6.32807 17.326 6.25486 17.5044 6.12279C18.6293 5.4869 20.0595 5.88402 20.6949 7.00664C21.3385 8.09108 20.9178 9.6041 19.8094 10.2006L19.7561 10.231C19.518 10.3667 19.3836 10.6345 19.4215 10.8976C19.4731 11.2552 19.4993 11.6208 19.4993 11.9841C19.4993 12.3293 19.4758 12.6766 19.4294 13.0163C19.3933 13.2805 19.5276 13.5484 19.7636 13.6829L19.8117 13.7103C20.3547 14.0174 20.747 14.5199 20.9141 15.1239ZM15.545 11.9549C15.545 13.8946 13.9721 15.4727 12.0388 15.4727C7.38735 15.2794 7.38871 8.62972 12.0388 8.43719C13.9721 8.43719 15.545 10.0152 15.545 11.9549ZM13.9867 11.9549C13.9867 10.8773 13.1129 10.0006 12.0388 10.0006C9.45464 10.108 9.45542 13.8022 12.0388 13.9092C13.1129 13.9092 13.9867 13.0325 13.9867 11.9549ZM17.1812 21.2183C17.1812 18.5889 15.0562 16.4498 12.4442 16.4498H11.7113C9.09931 16.4498 6.97432 18.5889 6.97432 21.2183C6.97432 21.65 7.32314 22 7.75347 22C8.1838 22 8.53263 21.65 8.53263 21.2183C8.53263 19.451 9.9586 18.0132 11.7113 18.0132H12.4442C14.197 18.0132 15.6229 19.451 15.6229 21.2183C15.6229 21.65 15.9717 22 16.4021 22C16.8324 22 17.1812 21.65 17.1812 21.2183Z" fill="#282531"/>
</svg>
