<svg width="24" height="24" viewBox="0 0 24 24" fill="none" xmlns="http://www.w3.org/2000/svg">
<path d="M19.2542 7.96133L19.4291 7.77864C20.2951 6.87395 20.5292 5.54903 20.0254 4.40324L19.6598 3.57181C19.5291 3.27452 19.2595 3.06556 18.9386 3.01287C18.6177 2.96021 18.2952 3.07191 18.076 3.31175L15.3177 6.32963H9.30727L6.54902 3.31175C6.32984 3.07191 6.00741 2.9601 5.68644 3.01283C5.3655 3.06552 5.09586 3.27449 4.96515 3.57177L4.59961 4.40324C4.09584 5.54907 4.32993 6.87399 5.19594 7.77868L5.37078 7.96133C4.52079 8.87348 4 10.0952 4 11.4363V20.0175C4 21.1107 4.89091 22 5.986 22H18.639C19.7341 22 20.625 21.1107 20.625 20.0175V11.4363C20.625 10.0952 20.1042 8.87348 19.2542 7.96133ZM19.5097 20.0176C19.5097 20.4968 19.1191 20.8868 18.639 20.8868H5.986C5.50587 20.8868 5.11527 20.4968 5.11527 20.0176V11.4363C5.11527 9.23433 6.90989 7.44291 9.11582 7.44291H15.5092C17.7151 7.44291 19.5097 9.23433 19.5097 11.4363V20.0176ZM18.7362 4.24119L19.0041 4.85067C19.3263 5.58351 19.1766 6.43094 18.6227 7.00959L18.4097 7.23217C17.8988 6.87993 17.3211 6.61793 16.6995 6.46953L18.7362 4.24119ZM5.62086 4.85067L5.88882 4.24119L7.92545 6.4695C7.30391 6.61793 6.72613 6.87989 6.21534 7.23213L6.00228 7.00955C5.44836 6.43094 5.29866 5.58351 5.62086 4.85067Z" fill="#282531"/>
<path d="M12.3124 9.73017C10.3331 9.73017 8.72279 11.3376 8.72279 13.3133V15.4526C8.72279 17.4283 10.333 19.0358 12.3124 19.0358C14.2917 19.0358 15.902 17.4284 15.902 15.4526V13.3133C15.902 11.3376 14.2917 9.73017 12.3124 9.73017ZM12.3124 10.8435C13.6767 10.8435 14.7867 11.9514 14.7867 13.3133V14.5172L14.3865 14.9325C13.9703 15.3643 13.4449 15.6482 12.87 15.7598V14.0646L13.7919 13.2264C14.0196 13.0194 14.036 12.6673 13.8286 12.44C13.6212 12.2127 13.2686 12.1964 13.0409 12.4034L12.3124 13.0658L11.5839 12.4033C11.3562 12.1963 11.0035 12.2128 10.7961 12.44C10.5887 12.6673 10.6052 13.0193 10.8329 13.2263L11.7548 14.0646V15.7598C11.1799 15.6482 10.6545 15.3643 10.2383 14.9325L9.83805 14.5172V13.3133C9.83805 11.9515 10.948 10.8435 12.3124 10.8435ZM12.3124 17.9224C11.1896 17.9224 10.2398 17.1719 9.93839 16.1472C10.6207 16.6535 11.4432 16.9268 12.3124 16.9268C13.1815 16.9268 14.0041 16.6535 14.6864 16.1472C14.385 17.1719 13.4351 17.9224 12.3124 17.9224Z" fill="#282531"/>
<path d="M7.49825 9.91415C7.19029 9.91415 6.94061 10.1634 6.94061 10.4708V11.5841C6.94061 11.8915 7.19029 12.1407 7.49825 12.1407C7.80621 12.1407 8.05588 11.8915 8.05588 11.5841V10.4708C8.05588 10.1634 7.80621 9.91415 7.49825 9.91415Z" fill="#282531"/>
<path d="M17.1268 9.91415C16.8188 9.91415 16.5691 10.1634 16.5691 10.4708V11.5841C16.5691 11.8915 16.8188 12.1407 17.1268 12.1407C17.4347 12.1407 17.6844 11.8915 17.6844 11.5841V10.4708C17.6844 10.1634 17.4347 9.91415 17.1268 9.91415Z" fill="#282531"/>
</svg>
