<svg width="24" height="24" viewBox="0 0 24 24" fill="none" xmlns="http://www.w3.org/2000/svg">
<path d="M20.443 12.0122L17.4085 5.55255C17.3607 5.45078 17.2856 5.36563 17.1918 5.30704L12.0451 2.08514C11.8643 1.97192 11.6374 1.97162 11.4561 2.08423L6.27047 5.30673C6.17523 5.36594 6.09896 5.45245 6.05097 5.55591L3.05567 12.0148C2.92031 12.3069 3.04027 12.6566 3.3236 12.7961C3.40269 12.835 3.48622 12.8534 3.56842 12.8534C3.78065 12.8534 3.9843 12.7304 4.0819 12.52L4.39337 11.8485V21.4141C4.39337 21.7377 4.64796 22 4.9621 22H18.4769C18.7911 22 19.0457 21.7377 19.0457 21.4141V11.7275L19.4192 12.5226C19.556 12.8139 19.8962 12.9357 20.179 12.7948C20.4617 12.6538 20.5799 12.3033 20.443 12.0122ZM10.7176 18.461L7.98939 20.3163V16.6059L10.7176 18.461ZM15.5108 20.3163L12.7825 18.461L15.5108 16.6059V20.3163ZM14.1856 20.8193H9.31479L11.7501 19.1631L14.1856 20.8193ZM11.7501 17.759L9.31479 16.1029H14.1856L11.7501 17.759ZM17.9082 20.8281H16.6483V15.517C16.6483 15.1934 16.3937 14.9311 16.0795 14.9311H7.42066C7.10667 14.9311 6.85193 15.1934 6.85193 15.517V20.8281H5.53082V9.39578L7.00389 6.21951L11.7488 3.27091L16.4578 6.2186L17.9084 9.30621L17.9082 20.8281Z" fill="#282531"/>
<path d="M13.7731 10.8369H13.486V7.58154C13.486 7.26033 13.2725 7 13.0091 7H10.5072C10.2439 7 10.0303 7.26033 10.0303 7.58154V10.8369H9.72689C9.46361 10.8369 9.25 11.0973 9.25 11.4185C9.25 11.7397 9.46361 12 9.72689 12H13.7731C14.0365 12 14.25 11.7397 14.25 11.4185C14.25 11.0973 14.0365 10.8369 13.7731 10.8369ZM10.9841 10.8369V8.16307H12.5322V10.8369H10.9841Z" fill="#282531"/>
</svg>
