<svg width="24" height="24" viewBox="0 0 24 24" fill="none" xmlns="http://www.w3.org/2000/svg">
<path d="M12 2C6.49336 2 2 6.4941 2 12C2 17.5066 6.4941 22 12 22C17.5066 22 22 17.5059 22 12C22 6.49336 17.5059 2 12 2ZM20.7248 10.6488C19.1062 7.78172 16.2009 5.92262 12.9816 5.60383C13.7126 4.8998 14.567 4.31891 15.5163 3.90328C18.2429 5.09195 20.2573 7.61828 20.7248 10.6488ZM3.17188 12C3.17188 7.59152 6.42 3.9275 10.6488 3.27523C7.50969 5.04738 5.55469 8.38352 5.55469 12C5.55469 15.6084 7.5027 18.9487 10.6488 20.7248C6.42 20.0725 3.17188 16.4085 3.17188 12ZM13.7584 20.652C9.67723 19.8244 6.72656 16.2039 6.72656 12C6.72656 7.79613 9.67723 4.17562 13.7584 3.34801C13.8239 3.36129 13.8891 3.37547 13.954 3.3902C7.4393 7.26449 7.46691 16.7519 13.954 20.6098C13.8891 20.6245 13.8239 20.6387 13.7584 20.652ZM15.5164 20.0968C13.2977 19.1254 11.5976 17.2507 10.7795 15.0143C11.1826 14.9584 11.591 14.9297 12 14.9297C14.546 14.9297 16.9227 15.9933 18.5935 17.8634C17.7471 18.8142 16.6988 19.5813 15.5164 20.0968ZM19.3225 16.9262C17.481 14.9615 14.8618 13.7578 12 13.7578C11.4795 13.7578 10.9596 13.7987 10.448 13.8787C10.2846 13.1385 10.215 12.3751 10.2523 11.5888C10.825 11.4734 11.4109 11.4141 12 11.4141C15.2664 11.4141 18.3021 13.2452 19.8148 16.1028C19.6652 16.3866 19.5011 16.6616 19.3225 16.9262ZM20.3843 14.7645C18.5817 12.0113 15.4564 10.2422 12 10.2422C11.4614 10.2422 10.9248 10.2856 10.3964 10.3711C10.6491 9.04418 11.2041 7.79734 11.9962 6.72664C11.9975 6.72664 11.9987 6.7266 12 6.7266C16.2039 6.7266 19.8243 9.67727 20.652 13.7585C20.5824 14.1015 20.4925 14.4371 20.3843 14.7645Z" fill="#282531"/>
</svg>
