<svg width="24" height="24" viewBox="0 0 24 24" fill="none" xmlns="http://www.w3.org/2000/svg">
<path d="M10.9519 12.7803C11.6892 12.0431 11.6893 10.8496 10.9519 10.1122C10.2146 9.37489 9.02114 9.37478 8.28375 10.1122C7.54644 10.8495 7.54632 12.043 8.28375 12.7803C9.02102 13.5177 10.2145 13.5178 10.9519 12.7803ZM9.61782 10.8202C9.96384 10.8202 10.2439 11.1002 10.2439 11.4463C10.2439 11.9993 9.57043 12.2844 9.17509 11.889C8.7842 11.4981 9.05841 10.8202 9.61782 10.8202Z" fill="#282531"/>
<path d="M14.6954 14.6371C13.6527 14.6371 12.8086 15.4809 12.8086 16.5238C12.8086 18.2044 14.8511 19.0362 16.0294 17.8579C17.2238 16.6635 16.3586 14.6371 14.6954 14.6371ZM15.138 16.9665C14.8939 17.2107 14.4967 17.2106 14.2526 16.9665C14.0079 16.7218 14.0079 16.3258 14.2526 16.081C14.4972 15.8364 14.8933 15.8363 15.138 16.081C15.3828 16.3258 15.3828 16.7218 15.138 16.9665Z" fill="#282531"/>
<path d="M15.0657 11.076C14.8195 10.8299 14.4204 10.8299 14.1743 11.076L9.30393 15.9464C8.90567 16.3447 9.1932 17.0224 9.74958 17.0224C9.91089 17.0224 10.0722 16.9608 10.1953 16.8377L15.0657 11.9673C15.3119 11.7212 15.3119 11.3221 15.0657 11.076Z" fill="#282531"/>
<path d="M18.1527 5.7661L13.6657 2.49128C12.7692 1.83701 11.5639 1.83618 10.6664 2.48915L6.16363 5.76571C5.43506 6.29585 5.00009 7.15027 5.00009 8.05134V18.9663C5.00009 20.6391 6.36099 22 8.03375 22H16.2793C17.9521 22 19.313 20.6391 19.313 18.9663V8.04937C19.3131 7.14992 18.8793 6.29636 18.1527 5.7661ZM18.0525 18.9663C18.0525 19.944 17.2571 20.7394 16.2794 20.7394H8.03379C7.05611 20.7394 6.26069 19.944 6.26069 18.9663V8.05134C6.26069 7.55212 6.5017 7.0787 6.90535 6.78499L11.4082 3.50847C11.8572 3.18171 12.4658 3.1762 12.9226 3.50954L17.4096 6.78432C17.8122 7.07811 18.0525 7.55105 18.0525 8.04937V18.9663Z" fill="#282531"/>
<path d="M12.1848 6.27758C12.552 6.27758 12.8497 5.97988 12.8497 5.61264C12.8497 5.2454 12.552 4.94769 12.1848 4.94769C11.8176 4.94769 11.5199 5.2454 11.5199 5.61264C11.5199 5.97988 11.8176 6.27758 12.1848 6.27758Z" fill="#282531"/>
</svg>
