<svg width="24" height="24" viewBox="0 0 24 24" fill="none" xmlns="http://www.w3.org/2000/svg">
<path d="M16.0494 14.1065L13.9292 13.7825L12.9757 11.7511C12.8793 11.5455 12.6725 11.4141 12.4453 11.4141C12.2181 11.4141 12.0115 11.5455 11.9149 11.751L10.9614 13.7825L8.84116 14.1065C8.62403 14.1396 8.44367 14.2914 8.37409 14.4997C8.30436 14.708 8.357 14.9376 8.51035 15.0949L10.0616 16.6849L9.69428 18.937C9.65812 19.1584 9.75166 19.381 9.93507 19.5102C10.1185 19.6395 10.3596 19.6526 10.5559 19.5441L12.4453 18.4996L14.3346 19.5441C14.5325 19.6535 14.7736 19.6384 14.9555 19.5102C15.1389 19.381 15.2325 19.1584 15.1963 18.937L14.829 16.6849L16.3802 15.0949C16.5336 14.9378 16.5862 14.708 16.5165 14.4997C16.4469 14.2914 16.2666 14.1397 16.0494 14.1065ZM13.7838 16.0782C13.6538 16.2113 13.5949 16.3982 13.6248 16.5816L13.8456 17.9348L12.7288 17.3174C12.6406 17.2687 12.543 17.2443 12.4453 17.2443C12.3476 17.2443 12.25 17.2687 12.1618 17.3174L11.045 17.9348L11.2658 16.5816C11.2957 16.3982 11.2368 16.2113 11.1068 16.0782L10.1453 15.0928L11.4474 14.8938C11.6405 14.8642 11.8063 14.7405 11.8893 14.5636L12.4453 13.3791L13.0013 14.5635C13.0843 14.7403 13.25 14.8642 13.4432 14.8937L14.7453 15.0927L13.7838 16.0782Z" fill="#282531"/>
<path fill-rule="evenodd" clip-rule="evenodd" d="M18.8906 21.4141C18.8906 21.7377 18.6283 22 18.3047 22H6.58594C6.2623 22 6 21.7377 6 21.4141V6.10156C6 5.77792 6.2623 5.51562 6.58594 5.51562H11.1942L9.06549 2.96099C8.85843 2.71243 8.892 2.34301 9.14057 2.1358C9.38913 1.92873 9.75855 1.96215 9.96576 2.21087L12.4453 5.18634L14.9249 2.21087C15.1321 1.96215 15.5017 1.92873 15.7501 2.1358C15.9988 2.34301 16.0324 2.71243 15.8251 2.96099L13.6964 5.51562H18.3047C18.6283 5.51562 18.8906 5.77792 18.8906 6.10156V21.4141ZM7.17188 10.2031V20.8281H17.7188V10.2031H7.17188ZM7.17188 6.6875V9.03125H10.1165V9.04501H14.9698V9.03125H17.7188V6.6875H7.17188Z" fill="#282531"/>
</svg>
