<svg width="24" height="24" viewBox="0 0 24 24" fill="none" xmlns="http://www.w3.org/2000/svg">
<path d="M19.8234 4.34422H11.0327C11.0327 3.0516 9.98106 2 8.68844 2C7.39583 2 6.34423 3.0516 6.34423 4.34422H4.5861C4.26243 4.34422 4.00005 4.6066 4.00005 4.93027V21.4179C4.00005 21.7415 4.26243 22 4.5861 22H16.3026C16.3041 22 16.3056 22 16.307 22C16.4642 22 16.6123 21.9416 16.7215 21.8322L20.2379 18.3159C20.2424 18.3114 20.2468 18.3068 20.2512 18.3021C20.349 18.1977 20.4091 18.0575 20.4095 17.9033C20.4095 17.9034 20.4095 17.9032 20.4095 17.9033C20.4095 17.9032 20.4095 17.9026 20.4095 17.9024C20.4095 17.9021 20.4095 17.9018 20.4095 17.9015V4.93027C20.4095 4.6066 20.1471 4.34422 19.8234 4.34422ZM8.68844 3.17211C9.33473 3.17211 9.86055 3.69793 9.86055 4.34422H7.51633C7.51637 3.69789 8.04215 3.17211 8.68844 3.17211ZM16.8932 20.003V18.4876H18.4086L16.8932 20.003ZM19.2374 17.3155H16.3071C15.9834 17.3155 15.7211 17.5779 15.7211 17.9016V20.8318H5.17216V5.51633H9.86055V8.52473C9.86055 8.84789 9.59766 9.11078 9.2745 9.11078C8.95133 9.11078 8.68844 8.84789 8.68844 8.52473V7.35262C8.68844 7.02894 8.42606 6.76656 8.10239 6.76656C7.77872 6.76656 7.51633 7.02894 7.51633 7.35262V8.52473C7.51633 9.49418 8.30505 10.2829 9.2745 10.2829C10.244 10.2829 11.0327 9.49418 11.0327 8.52473V5.51633H19.2374V17.3155Z" fill="#282531"/>
<path d="M13.963 16.1434H8.10241C7.77874 16.1434 7.51636 16.4058 7.51636 16.7294C7.51636 17.0531 7.77874 17.3155 8.10241 17.3155H13.9629C14.2866 17.3155 14.549 17.0531 14.549 16.7294C14.549 16.4058 14.2866 16.1434 13.963 16.1434Z" fill="#282531"/>
<path d="M16.3072 12.6271H8.10241C7.77874 12.6271 7.51636 12.8895 7.51636 13.2131C7.51636 13.5368 7.77874 13.7992 8.10241 13.7992H16.3072C16.6308 13.7992 16.8932 13.5368 16.8932 13.2131C16.8932 12.8895 16.6308 12.6271 16.3072 12.6271Z" fill="#282531"/>
<path d="M16.3071 9.11077H12.7908C12.4671 9.11077 12.2047 9.37315 12.2047 9.69682C12.2047 10.0205 12.4671 10.2829 12.7908 10.2829H16.3071C16.6308 10.2829 16.8931 10.0205 16.8931 9.69682C16.8931 9.37315 16.6308 9.11077 16.3071 9.11077Z" fill="#282531"/>
</svg>
