<?xml version="1.0" encoding="UTF-8"?>
<svg width="93px" height="139px" viewBox="0 0 93 139" version="1.1" xmlns="http://www.w3.org/2000/svg" xmlns:xlink="http://www.w3.org/1999/xlink">
    <title>a person/bust</title>
    <g id="Page-1" stroke="none" stroke-width="1" fill="none" fill-rule="evenodd">
        <g id="User-Profile" transform="translate(-1160.000000, -511.000000)">
            <g id="Premium-Card" transform="translate(1132.000000, 288.000000)">
                <g id="a-person/bust" transform="translate(7.000000, 199.000000)">
                    <g id="BODY" transform="translate(17.469190, 80.448141)">
                        <path d="M84.3876913,24.7471755 C83.3518763,20.4918613 82.3992934,18.6876489 80.5592534,17.2086263 C78.8381526,15.8252069 76.3257495,14.6632965 72.6598614,13.8145569 C68.8416485,13.1074647 68.7334008,11.0055176 67.7760367,7.6271881 C67.4967457,6.61156921 66.1127302,6.34132779 65.5153943,7.07336154 C65.4311884,6.97708725 65.3433941,6.88891896 65.25249,6.80923079 C65.3338252,6.32486638 64.6679994,4.9365844 64.6902455,4.47326534 C64.9224457,-0.362771625 63.4290247,-2.79126096 59.7015963,-3.69401945 C58.8909945,-3.89043396 53.3849548,-4.00603793 52.5945673,-3.77458058 C49.1392532,-2.76270291 45.7377447,0.450014904 46.2582905,4.32019132 C45.1736606,5.82154641 44.1121347,6.73789803 42.438781,7.22163891 C38.7148212,7.72246473 34.9912203,8.16779565 31.2663036,8.54902686 C23.9748349,9.76031202 17.138485,13.8482279 12.4660123,19.8101253 C12.0350549,20.3604601 11.9105402,21.1074588 12.2909022,21.6943328 C11.9929519,23.0460388 10.3157706,26.3248516 11.6354355,27.251554 C9.46533848,32.7489155 4.47228185,43.3746975 4.46207507,46.4103562 C4.42356269,59.1632073 5.72415478,75.7626952 17.6052059,82.8200243 C18.0808977,83.315363 18.1489562,83.863453 18.3549258,84.6004751 C18.8772658,86.9221569 20.7742916,88.5814286 22.8506139,88.4459961 C33.0790497,88.6867575 42.9859545,87.3650493 53.2146185,87.3010187 C57.7254323,87.2727813 63.1501441,87.985913 67.0686589,88.461049 C70.9871738,88.9361851 74.9427514,88.5159204 78.7031924,87.3010187 C79.0202804,87.829779 79.6613938,88.1378068 80.3117172,87.985913 C84.2100694,87.1655862 87.3625292,84.6210518 90.108193,81.8399471 C90.9472621,80.2232375 94.2239974,75.6169119 92.9215564,74.013546 C94.1022337,68.7268157 94.0408734,63.0462587 91.942782,58.0120613 C92.2401972,57.0892536 91.6980985,56.075121 91.942782,55.1221723 C92.1198494,54.4325621 92.57333,54.1473405 92.8015869,53.464471 C93.122785,52.5035515 92.7734742,51.2144241 92.4118418,50.2338635 C92.2636441,49.7451343 92.6846076,49.2191184 92.8015869,48.7204126 C93.3564609,46.3683021 92.0858946,46.5756214 91.1699158,45.003183 C91.1835514,44.9983194 91.4217577,43.8757715 91.4206813,43.8813834 C91.5609273,43.0799511 91.2095811,42.0532002 90.9031058,41.3842131 C90.6959665,40.9320608 90.2522475,40.6490778 89.8113697,40.7009514 C90.2553646,39.1044444 90.8168864,37.7760045 91.4206813,36.2378607 C92.4885656,33.5265922 93.8402862,30.9303042 95.3736955,28.4761829 C96.0016517,27.4712888 95.1582766,26.3070184 94.1420641,26.238554 C90.8528892,26.0171979 87.5997172,25.5156239 84.3876913,24.7471755 Z" id="ðŸŽ¨-Background" fill="#FFFFFF"></path>
                        <path d="M74.7882887,45.2505937 C73.4727518,44.704201 72.0562025,44.4021742 70.6325229,44.2849642 C71.3990282,44.1427007 72.1677914,44.005473 72.9427342,43.9349707 C73.4834472,43.8858709 73.9848248,43.8909068 74.3912509,44.3253771 C74.6623204,44.6148142 74.7894771,44.9874691 74.9677342,45.3299087 C74.9095035,45.3022114 74.8488961,45.2757731 74.7882887,45.2505937 Z M88.9086232,40.1416961 C86.7540898,40.2576472 84.5971796,40.8002629 82.6482359,41.7833921 C81.8508327,42.1862623 81.1282975,42.7679061 80.9167658,43.7247228 C80.8098116,44.2133288 80.835956,44.7181755 80.8928794,45.2116915 C80.9357799,45.5854795 80.9464754,46.0626289 81.2530775,46.3156817 C81.3053662,46.3584867 81.3612201,46.3912199 81.4194507,46.4151403 C80.7004806,46.7588389 80.0158548,47.1719068 79.407404,47.5973125 C78.8513609,47.9863341 78.27975,48.5856035 78.0230599,49.26167 C78.001669,49.1848729 77.9802782,49.1132375 77.9588873,49.0451273 C77.5215634,47.6754945 76.8477518,46.5537528 75.7865282,45.7995043 C75.9742923,45.7102434 76.1038257,45.4986106 76.0432183,45.2066556 C75.7912817,43.9865885 74.7275625,42.9265363 73.5262289,43.0020744 C72.2106919,43.0839074 70.7977077,43.5912721 69.6080202,44.2320875 C69.1743803,44.2220157 68.741691,44.2283106 68.313993,44.2484541 C68.2403134,44.250972 68.2438785,44.3568513 68.313993,44.3655382 C68.661,44.412246 69.008007,44.4637378 69.3550141,44.5241684 C70.17975,44.6640399 71.0021092,44.8414286 71.8065238,45.0617483 C72.7716074,45.3262577 73.7698468,45.5917744 74.6718275,46.0538161 C76.4210044,46.9515871 77.5037377,49.298306 77.2815106,51.3402284 C77.2446708,51.6751142 77.1222676,52.6873256 76.6836364,52.5828311 C76.3129806,52.4947033 76.1656215,51.6751142 76.036088,51.3717026 C75.689081,50.5659622 75.063993,50.039713 74.314125,49.6834247 C73.4335352,49.2641879 72.4911496,48.9809198 71.5783548,48.6511958 C71.0615282,48.4636093 70.5445827,48.275897 70.0264489,48.0895695 C69.4964313,47.8970731 68.9925581,47.6313047 68.4280775,47.7660144 C68.0870123,47.8478474 68.0477958,48.2784149 68.239125,48.5252988 C68.5302782,48.9016048 68.9628486,49.0123941 69.3823468,49.1672473 C69.936132,49.3712003 70.4887289,49.5752793 71.0413257,49.7791064 C71.8956523,50.0938487 72.7906215,50.3594913 73.6235572,50.7447359 L73.5975317,50.8076843 C73.5296752,50.7875408 73.4500537,50.8593021 73.4632447,50.9474299 C73.5880246,51.7619831 73.7615282,52.7036922 73.5688917,53.5196302 C73.4168979,54.1666145 72.8808195,54.883094 72.1845475,54.6928637 C72.2938785,54.5871103 72.3342835,54.4045598 72.2606039,54.2358579 C71.9847808,53.6114091 68.3722236,51.1463471 68.0501725,52.0617437 C68.0394771,52.094351 68.0726329,52.1182714 68.0988961,52.1133614 C68.373412,52.052805 68.8333151,52.5488389 69.0530467,52.7062101 C69.3703442,52.9329505 69.6923952,53.1544032 70.0062465,53.3873125 C70.3496884,53.6417502 70.6848116,53.9086517 71.0116162,54.1842401 C71.2683063,54.4009087 71.4620123,54.6261384 71.7566118,54.7357946 C71.6022412,54.8137248 71.4797192,54.9585063 71.4275493,55.1435748 C71.2944507,55.62576 71.0377606,56.034925 70.592118,56.2478168 C70.1250845,56.4692695 69.598632,56.3295239 69.1066426,56.3837855 C68.4363961,56.4554208 67.851713,56.7929505 67.3632887,57.2751357 C66.3377165,58.2897391 65.8231479,60.0776015 64.3887729,60.5571429 C63.5319507,60.8430549 62.5812465,60.6628963 61.7137289,60.5332225 C60.7451989,60.388441 59.801625,60.2738748 58.8259648,60.4249511 C57.8918979,60.5698585 57.0089313,60.9121723 56.1556743,61.3301501 C55.3558944,61.7216896 54.4717394,62.1649727 53.7622764,62.7490085 C53.6161056,62.2718592 53.4687465,61.7997457 53.3569199,61.3125245 C53.0932183,60.1606935 52.9506127,58.9872082 52.9160308,57.803777 C52.8840634,56.6771253 52.9434824,55.5453119 53.0348688,54.4234443 C53.0801461,53.8632029 53.1514489,53.3054795 53.1966074,52.7452382 C53.2083724,52.6042336 53.2322588,52.4531573 53.2500845,52.3022068 C54.5168979,51.5101892 55.847765,50.9034919 57.1894463,50.2790431 C57.1931303,50.2777841 57.1966954,50.2751403 57.2002606,50.2740072 C57.2418539,50.2537378 57.2822588,50.2349792 57.3238521,50.2160947 C57.3226637,50.2134508 57.3214754,50.2110588 57.3190986,50.2084149 C57.4723996,50.1090823 57.5793539,49.9767646 57.6435264,49.8282062 C59.5770211,48.4697783 61.1932183,46.6154423 62.3982359,44.4524071 C62.9032975,43.5459492 63.3893451,42.6054991 64.0500845,41.8112153 C64.7536056,40.9638031 65.589037,40.4602153 66.6229278,40.1983497 C67.8315106,39.8912871 69.0769331,39.7073517 70.3152254,39.6028572 C70.9914137,39.5463295 71.7471048,39.4580757 72.4840194,39.4619785 C72.9973996,39.4656295 73.4999657,39.5122114 73.9611761,39.6469211 C74.6444947,39.8458383 75.0437905,40.3961338 75.4727958,40.9524723 C75.882787,41.4864012 76.2904014,42.0214632 76.6730599,42.5779277 C77.035397,43.1053099 77.3777694,43.6504436 77.6748644,44.2220157 C77.8531215,44.5644554 78.0183063,44.9170927 78.1573468,45.2808089 C78.2060704,45.4093497 78.270243,45.5552643 78.2999525,45.688715 C78.329662,45.8234247 78.2749965,45.9658142 78.4176021,45.9658142 C77.8293539,45.974501 77.8352958,46.9703458 78.4199789,46.9338357 C80.7087993,46.7928311 77.4300581,42.0592323 76.951022,41.3994065 C76.2724569,40.4652512 75.5726197,39.2465689 74.4864401,38.8122245 C74.4709912,38.8059296 74.4543539,38.7997607 74.4389049,38.7945989 C74.7550141,38.4773386 75.0045739,38.0972558 75.2434384,37.7106263 C75.4894331,37.312792 75.7828442,36.8570451 75.8637729,36.3849316 C75.9148732,36.0841638 75.5619243,35.9128181 75.3943627,36.1759427 C75.1507447,36.5599283 75.0330951,37.0458905 74.8512729,37.4677711 C74.6658856,37.8956948 74.4400933,38.2998239 74.2618363,38.7316504 C73.832831,38.5919048 73.3693627,38.5278233 72.8975757,38.5064208 C73.4929542,37.6528396 74.5100889,36.0059818 74.6326109,35.794475 C75.1959032,34.8149968 75.7318627,33.8054293 76.2440546,32.794351 C76.797721,31.6990477 77.2720035,30.5584215 77.8020211,29.4505284 C78.1026813,28.8224286 78.4057183,28.1890412 78.7396532,27.5797 C78.8549261,27.3707111 78.9785176,27.1617222 79.1187465,26.9716178 C79.1460792,26.9339746 79.1805423,26.9025004 79.2126285,26.8671234 C79.2494683,26.8457209 79.2874965,26.8218005 79.3088873,26.8093367 C79.5012861,26.6922525 79.5691426,26.4203151 79.7044991,26.2477104 C79.9209032,25.9696041 80.1752165,25.9368709 80.5008327,25.9329681 C81.194728,25.9254143 81.8912377,25.9543706 82.5840634,25.9745141 C83.6025053,26.0047294 84.6197588,26.0475343 85.6370123,26.1041879 C85.9448028,26.1218135 86.2514049,26.1394391 86.5591954,26.1595826 C88.0387289,26.2528722 89.5170739,26.3748663 90.9918539,26.5248096 C92.2966954,26.6568755 93.601537,26.8722851 94.9075669,26.9755206 C93.139257,31.4259772 91.1784296,35.7958598 88.9584164,40.0134071 C88.935956,40.0560862 88.9191998,40.0988911 88.9086232,40.1416961 Z M79.0973556,51.6071299 C78.8121444,51.7457424 78.5352518,51.9180953 78.2773732,52.1146204 C78.3201549,51.8086909 78.3308504,51.4862688 78.3189665,51.1627137 C78.5316866,51.4044358 78.8038257,51.5429224 79.0973556,51.6071299 Z M91.2723116,43.9514632 C91.2521092,43.9538553 91.2330951,43.965186 91.223588,43.9865885 C90.8290458,44.8489825 90.9941118,45.812094 91.6383327,46.4881605 C91.9758327,46.840672 92.7114401,47.2385063 92.6875537,47.8176322 C92.6673512,48.2859688 92.1861761,48.6787672 91.9805863,49.0652708 C91.789257,49.425336 91.7179542,49.8206524 91.8712553,50.2110588 C92.067338,50.7107437 92.6151813,50.9096609 92.8029454,51.4007848 C93.0406215,52.0238487 92.6543979,52.7755793 92.3834472,53.3180692 C92.1315106,53.820398 91.8057755,54.3227267 91.5896092,54.8540118 C90.1409736,55.6485474 88.8444507,56.8672297 87.72975,58.1047965 C86.5092835,59.4581886 85.4623204,61.0506589 83.5240722,61.0104978 C83.3303662,61.006595 83.183007,61.1149922 83.0950669,61.2646837 C82.5555423,61.291122 82.0148292,61.3024528 81.4753046,61.3050966 C80.5269771,61.3100066 79.5786496,61.2999348 78.6315106,61.2684606 C78.5649613,61.0254795 78.6136849,60.6957554 78.6100009,60.4904175 C78.5982359,59.8294586 78.592294,59.1697587 78.5661496,58.5087998 C78.5590194,58.3251162 78.5518891,58.1399218 78.5447588,57.9561123 C78.8858239,58.6095174 79.5513169,58.9066341 80.3095035,58.8613112 C81.5287817,58.785899 82.7551901,58.5742662 83.9624657,58.3841618 C84.598368,58.2847033 85.232963,58.171396 85.8663697,58.050535 C86.3868803,57.9523354 87.1212993,57.9776406 87.4849437,57.5356165 C87.570507,57.4325069 87.5752606,57.2436615 87.4409736,57.1742923 C87.0808944,56.9867059 86.8539137,57.0912003 86.4580643,57.1719003 C85.9757007,57.2712329 85.4920299,57.3656556 85.0070519,57.4539094 C84.0765502,57.6250033 83.1437905,57.7836335 82.2085352,57.9233791 C81.6761408,58.0026941 81.1425581,58.0807502 80.6089754,58.1424397 C80.1431303,58.1953164 79.6178662,58.2670777 79.242338,57.8958076 C78.4853398,57.145336 78.9095915,55.8876256 79.3885088,55.1297261 C79.3980158,55.1147444 79.3980158,55.1007698 79.3944507,55.0881801 C79.8460352,54.9761318 80.2964313,54.845199 80.7456391,54.7532943 C81.6095915,54.5770386 82.4794859,54.4286061 83.3505687,54.2964143 C85.1402694,54.02561 86.9418539,53.8468363 88.7409428,53.6669296 C89.1865854,53.6214808 89.1913389,52.8788148 88.7409428,52.9228787 C86.1562157,53.1734136 83.5585352,53.4112329 81.0082711,53.938867 C80.3689225,54.0696739 79.7342086,54.2182323 79.1032975,54.3856752 C78.8050141,54.4638572 78.4853398,54.5859772 78.1727958,54.5897541 C78.1537817,54.5897541 78.1346488,54.5897541 78.1157535,54.5883693 C77.5037377,54.5683517 77.4146092,54.0131462 77.7509208,53.5511044 C77.7925141,53.4943249 77.8352958,53.4376713 77.8792658,53.3836615 C78.473456,52.6331899 79.2136981,52.1321201 79.9766382,51.6134247 C80.8312025,51.4900457 81.6832711,51.2155904 82.5198908,51.0141553 C84.5852958,50.5156035 86.6507007,50.0170516 88.717294,49.5197587 C89.1224129,49.4215591 88.9502165,48.7618592 88.5449789,48.8587998 C86.9763169,49.2353575 85.4076549,49.6116635 83.8388741,49.9880953 L81.5430423,50.5396498 C81.0843275,50.6490542 80.5114093,50.8693738 79.9718847,50.9488148 C79.7058063,50.987717 79.4479278,50.9927528 79.2150053,50.9349661 C78.4627606,50.7461207 78.4247324,49.7501501 78.7491602,49.1584345 C79.1128046,48.4938246 79.7996884,48.0782388 80.4093275,47.701807 C81.4657975,47.0484019 82.5900053,46.5788063 83.6880687,46.0374495 C83.882963,45.9921266 84.0778574,45.9468037 84.2727518,45.9014808 C85.4064665,45.6370973 86.7018011,45.5074234 87.7689665,45.0228461 C88.0886408,44.8791977 87.9138301,44.3453947 87.5978398,44.3529485 C86.7695387,44.371959 85.9032095,44.6840575 85.0939225,44.869126 C84.2180863,45.0705611 83.3410616,45.2707372 82.4652254,45.4709133 C82.3772852,45.4910568 81.8567746,45.6673125 81.7783415,45.6282845 C81.7284296,45.6031051 81.7106039,45.4194215 81.6939665,45.2984345 C81.6403706,44.9006002 81.6012729,44.4827483 81.6595035,44.0835291 C81.7878486,43.1884019 82.4925581,42.7679061 83.2055863,42.4242075 C84.7932623,41.6600131 86.5342394,41.1817307 88.2668979,40.9902414 C88.6661937,40.9461775 89.0654894,40.9186061 89.467162,40.9046315 C89.9388301,40.8895239 90.3275493,40.801396 90.5664137,41.293653 C90.9419419,42.0691781 91.1487201,43.0664078 91.2723116,43.9514632 Z M89.0673908,72.0697881 C88.7214533,70.8022577 88.8155731,69.4488657 88.57861,68.1560301 C88.4563257,67.4890281 88.2893583,66.8273138 88.1070607,66.1761749 C87.9599393,65.6501775 87.7145387,65.0906915 87.6867306,64.5417809 C87.6850669,64.5051449 87.7258283,64.4839942 87.7538741,64.5008644 C88.2419419,64.796974 88.616757,65.4371599 88.8950757,65.9394886 C89.2282975,66.5406465 89.4827298,67.1701312 89.687963,67.8319714 C90.0970035,69.15049 90.4328398,70.7409459 89.9053178,72.0697881 C89.7483327,72.4653562 89.1969243,72.5445454 89.0673908,72.0697881 Z M78.3760088,55.2808024 C78.6683504,55.250713 78.9606919,55.1914156 79.2530335,55.1221723 C78.9262289,55.459702 78.6243803,55.8662232 78.4566998,56.3170601 C78.4306743,55.9708435 78.3972808,55.62576 78.3534296,55.2821873 C78.3605599,55.2821873 78.3688785,55.2821873 78.3760088,55.2808024 Z M75.5664401,81.6651488 C75.0509208,81.2840588 74.6752738,80.7512629 74.2380687,80.2810379 C73.8081127,79.8186185 74.4802606,79.1064195 74.9103354,79.5689648 C75.283368,79.9699466 75.6072016,80.4710164 76.0461893,80.7954528 C76.2574833,80.9514391 76.355287,81.2335741 76.2168407,81.4844867 C76.0944375,81.7059394 75.77714,81.8208833 75.5664401,81.6651488 Z M72.6915106,67.0174182 C73.6325889,66.5863471 74.5580995,66.1168774 75.543029,65.8064156 C76.1316338,65.6207176 76.3808371,66.5930196 75.7957975,66.7774586 C74.8887069,67.0636224 74.0379454,67.4901612 73.1713785,67.8869883 C72.6149789,68.1418037 72.1314269,67.2738703 72.6915106,67.0174182 Z M62.7530863,66.7157691 C62.522897,66.1142336 63.4430599,65.8550118 63.6698028,66.4481123 C63.93089,67.1307254 64.2301241,67.7958389 64.4912113,68.4784521 C64.7211629,69.0799877 63.8012377,69.3393354 63.5744947,68.7462349 C63.3134076,68.0636217 63.0140546,67.3985082 62.7530863,66.7157691 Z M52.9436012,78.7287287 C52.7903002,78.9452714 52.5346796,79.0626074 52.2932007,78.9095167 C52.0909384,78.7811018 51.9674657,78.4396693 52.1226681,78.2204828 C52.5757975,77.5806746 53.0348688,76.9485461 53.565956,76.378107 C53.9965062,75.9156876 54.6684164,76.6283902 54.2382227,77.090306 C53.7639401,77.599685 53.3483636,78.1572825 52.9436012,78.7287287 Z M51.540956,11.3246432 C51.9773292,11.6403928 52.3596312,12.0240007 52.7324261,12.4186876 C53.1658283,12.8775819 52.4934428,13.589655 52.0600405,13.1307607 C51.7459516,12.798141 51.4291294,12.4604854 51.061088,12.1943393 C50.8484868,12.0404932 50.7530599,11.7543295 50.8905555,11.5053053 C51.0137905,11.282216 51.3288301,11.1713008 51.540956,11.3246432 Z M65.8123336,27.5322369 C65.5656259,28.0555904 65.3435176,28.5686204 65.3294947,29.1634834 C65.3145211,29.811475 64.3638169,29.8118526 64.3789093,29.1634834 C64.3970915,28.3850627 64.6680423,27.7100033 64.9914005,27.023865 C65.2649657,26.4431025 66.0847104,26.9538663 65.8123336,27.5322369 Z M71.0485748,14.5153751 C71.5596972,14.1544286 72.0351681,15.0272721 71.5285616,15.3850712 C71.1178574,15.6750118 70.7070343,15.9652042 70.2963301,16.2552708 C69.7854454,16.6160914 69.3099745,15.7433738 69.8164621,15.3855748 C70.2271664,15.0955082 70.6378706,14.8054417 71.0485748,14.5153751 Z M48.3368451,37.2741416 C48.249618,37.9142016 47.3336144,37.6403758 47.4200097,37.0064847 C47.5537025,36.0267548 47.7168671,35.0599922 47.9677342,34.1056935 C48.1319683,33.4812447 49.0488037,33.7481462 48.8844507,34.3734763 C48.6335836,35.327775 48.470419,36.2945376 48.3368451,37.2741416 Z M45.0035572,48.8113367 C44.3916602,48.7976139 44.3915414,47.7904384 45.0035572,47.8041612 C45.5573424,47.816625 46.1017394,47.9709746 46.6359164,48.112231 C47.2301065,48.2694763 46.9767438,49.2405193 46.3831479,49.0833999 C45.9315634,48.9639237 45.471779,48.821912 45.0035572,48.8113367 Z M43.7731083,72.0519107 C43.5628838,72.160308 43.3471928,72.2578781 43.1347104,72.3608618 C42.7091514,72.5669551 42.2838301,72.7733001 41.8586276,72.9801488 C40.972809,73.4109681 40.0874657,73.8431723 39.2029542,74.2768872 C37.4322676,75.1451984 35.6479146,75.9829166 33.8729498,76.8417855 C32.0629278,77.7177763 30.2576593,78.6053497 28.4546488,79.4974554 C27.6051945,79.9175735 26.7493231,80.3223321 25.8951153,80.7314971 C25.1647368,81.0813647 24.2619243,81.6927202 23.4601241,81.7502551 C23.4188873,81.7532766 23.4051021,81.6980079 23.428632,81.6696811 C23.7315502,81.3047059 24.2147456,81.0924436 24.612853,80.8552538 C25.0195167,80.6127763 25.4337861,80.384777 25.846154,80.1535043 C26.7058283,79.6709414 27.5665722,79.1922812 28.4345651,78.7267144 C30.1707887,77.7959583 31.9103398,76.8718748 33.6502474,75.9489244 C35.4247368,75.007593 37.1969683,74.0599668 38.9870255,73.152124 C39.8298248,72.724578 40.673456,72.2984169 41.5175625,71.8735147 C41.9748512,71.6433751 42.4323776,71.4136132 42.889904,71.184229 C43.0875317,71.0851481 43.2831391,70.9782616 43.4851637,70.8896302 C43.7536188,70.7719166 43.9576637,70.7959629 44.2345563,70.7234462 C44.6861408,70.6053549 44.8816294,71.2136889 44.5349789,71.4785761 C44.2495299,71.6967554 44.0993187,71.8833347 43.7731083,72.0519107 Z M37.4263257,82.3793621 C37.3287597,82.1281977 37.5330423,81.8227718 37.7583592,81.7598233 C38.0282403,81.6845369 38.2446444,81.8582747 38.3431611,82.1115793 C38.6037729,82.7832395 38.9750229,83.399505 39.4528706,83.9199629 C39.8799745,84.3850262 39.2080643,85.0974769 38.7806039,84.6321618 C38.181779,83.9797639 37.7515854,83.2173321 37.4263257,82.3793621 Z M32.7570607,66.2128109 C32.3236585,65.7537907 32.996044,65.0417176 33.4293275,65.5007378 L34.6614401,66.8059114 C35.0948424,67.2650575 34.422338,67.9771305 33.9891734,67.5181103 L32.7570607,66.2128109 Z M20.1162597,64.084775 C19.230441,64.3599857 18.1972632,64.6130386 17.5933283,65.4136172 C17.5638565,65.4527711 17.5143011,65.4025382 17.5320079,65.3635102 C18.3051681,63.6654123 20.5224481,63.0697939 22.0575977,62.4749309 C23.1434208,62.0540575 24.2575273,61.7050712 25.381022,61.3933504 C25.2687201,60.0355519 25.578412,58.5803093 25.6860792,57.2291834 C25.8009956,55.7866563 25.8945211,54.3403523 25.9425317,52.893293 C25.9916118,51.4171514 26.0034956,49.931064 25.9576241,48.4545447 C25.9119903,46.9834391 25.731713,45.5303367 25.6528046,44.064141 C25.6451989,43.922381 25.831537,43.9155826 25.8717042,44.0327926 C26.3382623,45.3933608 26.5375537,46.900473 26.6894287,48.3350686 C26.8458195,49.8129727 26.8977518,51.2865963 26.877787,52.7730614 C26.8571092,54.3014502 26.7732095,55.8261879 26.6580555,57.3496667 C26.6035088,58.0718115 26.5401681,58.7929492 26.4803926,59.5145904 C26.4347588,60.0652636 26.4136056,60.6115304 26.3076021,61.1447039 C26.9852165,60.9685741 27.6643759,60.8018866 28.3413961,60.6398572 C30.5002077,60.1238057 32.6680511,59.6448937 34.817831,59.0867926 C35.8731127,58.8129668 36.9133019,58.4848794 37.9638301,58.1935539 C38.9530379,57.9192245 39.9971488,57.5866048 41.0127386,57.4642329 C41.3751945,57.4204208 41.4213037,57.9456628 41.1813697,58.1239329 C40.3559208,58.7379322 39.25964,59.1654782 38.3062025,59.5091768 C37.3493187,59.8540085 36.3546444,60.1021514 35.3738741,60.3575963 C33.3285528,60.890518 31.2638609,61.3262473 29.2022588,61.7801057 C27.1435088,62.2334606 25.0808371,62.6834162 23.0452606,63.2427763 C22.0649657,63.5121958 21.0879982,63.7826224 20.1162597,64.084775 Z M15.2620827,37.1399355 C14.7327782,37.469156 14.2549305,36.5983269 14.7823336,36.2702395 C15.4724261,35.8411827 16.2079146,35.5187607 16.9493451,35.2042701 C17.5183415,34.9630516 17.7631479,35.9374939 17.2021136,36.175565 C16.5357887,36.4580777 15.8821796,36.7544391 15.2620827,37.1399355 Z M13.345463,74.5583928 C12.8147324,74.8844658 12.3365282,74.0137626 12.8657139,73.6888226 C13.6089269,73.2324462 14.4228486,72.9279016 15.1930379,72.5285565 C15.741,72.2442812 16.222294,73.1133477 15.672787,73.3982525 C14.9027165,73.7975976 14.0886761,74.1020164 13.345463,74.5583928 Z M12.483412,53.3179433 C12.9965546,53.8343725 13.6814181,54.0774795 14.327184,54.3487874 C14.8902386,54.585096 14.6432931,55.5587828 14.0744155,55.3199564 C13.269882,54.9819231 12.450375,54.6733497 11.8111452,54.0300164 C11.3664533,53.5825787 12.0399085,52.8716387 12.483412,53.3179433 Z M18.1604234,24.4718083 C18.7245475,24.7062284 18.4774833,25.6799153 17.9076549,25.4431031 C17.2756743,25.1804821 16.6230158,24.9805578 15.9910352,24.7179368 C15.4270299,24.4835167 15.6739754,23.5099557 16.2438037,23.7466419 C16.8757843,24.0092629 17.5284428,24.2091873 18.1604234,24.4718083 Z M28.1752606,13.0141801 C28.7746796,12.9071677 29.0299437,13.8778331 28.428029,13.985475 C27.6812509,14.1190516 26.9458812,14.2752897 26.2376065,14.565608 C25.6656391,14.8000281 25.4202386,13.8258376 25.984838,13.5944391 C26.6932315,13.3041207 27.4286012,13.1477568 28.1752606,13.0141801 Z M31.4843055,40.9108005 C30.9346796,40.6245108 31.4169243,39.7563256 31.9640546,40.0412303 C32.5406567,40.3414945 33.1380555,40.5736485 33.767184,40.7155343 C34.3662465,40.8507476 34.1111012,41.8215389 33.5144155,41.6868292 C32.8063785,41.5269401 32.1326857,41.2485819 31.4843055,40.9108005 Z M34.6096268,25.1969746 C35.2014401,25.0252512 35.451713,25.9970496 34.8623952,26.1682695 C33.8255335,26.4691631 32.7580114,26.625653 31.713544,26.8934358 C31.1182843,27.0460229 30.8664665,26.0746022 31.4607755,25.9222669 C32.505243,25.6543582 33.5728838,25.4981201 34.6096268,25.1969746 Z M47.8679102,20.2658435 C48.469706,20.3838089 48.2132535,21.3543484 47.6152606,21.2371384 C46.9786452,21.1123745 46.3334736,21.1103601 45.6880643,21.1099825 C45.0753354,21.1097307 45.0764049,20.1025552 45.6880643,20.1028069 C46.4212949,20.1031847 47.1451373,20.1242095 47.8679102,20.2658435 Z M91.1083151,25.5277059 C89.5551021,25.3703347 87.9995123,25.2444378 86.4415458,25.1500151 C86.3689357,25.1461123 86.2977518,25.1412023 86.2251417,25.1372995 C86.2169419,25.1197998 86.2062465,25.1033073 86.1954322,25.0856817 C85.6869243,24.295049 85.3125845,23.5045421 84.9881567,22.610548 C84.6779894,21.7594847 84.3773292,20.882109 83.8996004,20.1141377 C83.354728,19.239154 82.6191206,18.5545265 81.8129234,17.9611742 C81.3239049,18.3095311 80.8700625,18.7174371 80.4548424,19.1497672 C80.017875,19.6046328 79.3454894,18.8925598 79.7825757,18.4375682 C80.1515678,18.0533308 80.545397,17.6984273 80.9616866,17.3777678 C80.4809868,17.0683132 79.9905423,16.7774913 79.5121004,16.4881801 C77.7187157,15.4043334 75.882787,14.4020679 74.0087113,13.4856641 C73.1376285,13.0587476 72.2558504,12.6797978 71.3681303,12.2958122 C70.8902826,12.0894671 70.4186144,11.8236987 69.9408856,11.5846204 C69.9753486,11.2269472 69.8743363,10.826595 69.6152694,10.5911677 C69.4239401,10.4186889 69.2753926,10.3544815 69.0472236,10.2324873 C68.9961232,10.2134769 68.9652254,10.2021462 68.9509648,10.1958513 C68.9616602,10.1983693 68.9925581,10.208441 69.0435396,10.2260666 C69.1648732,10.2853641 69.1743803,10.2676126 69.0721796,10.1744489 C69.0662377,9.97062172 68.6870255,9.54005421 68.6003926,9.32980633 C68.298544,8.608291 68.204662,7.84535558 67.7590194,7.18817358 C67.1446268,6.28297462 66.1131127,5.94066086 65.1515942,6.24772348 C65.0518891,5.158715 65.0257447,4.02199159 64.6383327,3.04994136 C64.6276373,3.0236289 64.5931743,3.01217228 64.5777254,3.04112857 C64.1736761,3.77019772 64.139213,4.58210705 64.1083151,5.42309856 C64.0786056,6.21247234 64.1070079,7.01947169 64.2045739,7.80380959 C64.1427782,7.85416836 64.079794,7.90213509 64.0144331,7.94859106 C63.707831,8.16261585 63.3774613,8.32754083 63.0304542,8.44978676 C62.3697148,8.68131122 61.6768891,8.78202877 60.9840634,8.81727991 C59.1955511,8.9079257 57.3523732,8.71656236 55.5935704,8.39174827 C53.8145651,8.06315727 51.0872324,7.56964129 49.5043099,6.62667326 C48.4596048,6.0048683 47.4959472,5.24558389 46.5189798,4.51034579 C46.8732359,3.30173523 46.9635528,2.00247886 46.6070387,0.981454729 C46.564257,0.859334703 46.3836232,0.836673255 46.3491602,0.981454729 C46.1257447,1.955897 46.0603838,2.93537515 45.7632887,3.89848669 C45.7585352,3.91233536 45.7537817,3.92756888 45.7490282,3.94129165 C45.6563345,3.87469217 45.5636408,3.80909987 45.4709472,3.74363346 C45.2570387,3.59381611 44.9658856,3.70599028 44.8375405,3.91988917 C42.7850889,7.34554475 39.5349877,7.54194397 36.1219595,8.15392896 C32.3867614,8.82357476 28.632787,9.54622316 25.0415018,10.8568102 C21.6070827,12.1108696 18.3247764,13.9363751 15.7246004,16.6633027 C15.1359956,17.2807013 14.5855379,17.9385128 14.065978,18.6252806 C14.5686629,18.6923836 15.0671884,18.7968781 15.5592967,18.96067 C16.1419595,19.1545513 15.8915678,20.1266015 15.3065282,19.9318389 C14.6740722,19.7213393 14.0346048,19.6172225 13.3886012,19.565353 C11.6218363,22.1258448 10.2442658,25.029154 9.05303345,27.8868885 C6.76813468,33.366049 5.28087676,39.2011201 4.59648856,45.1418187 C4.9722544,44.903244 5.35479401,44.6760001 5.74684067,44.4646191 C6.29159419,44.1711534 6.77205634,45.0403458 6.22670863,45.3343151 C5.62111004,45.66064 5.0328618,46.0203275 4.46291461,46.4103562 C4.21394894,49.0107574 4.11745246,51.6279029 4.17592077,54.2408937 C4.31496127,60.470274 5.1087993,66.8822049 6.9044419,72.8257992 C7.78503169,75.7428311 8.95202113,78.6360686 10.6906215,81.1011305 C11.4773292,82.2177104 12.3709912,83.2248859 13.4238961,84.0646185 C13.9337113,84.4725245 14.4732359,84.8364926 15.0424701,85.1435552 C15.7757007,85.5413895 16.7311585,85.6723223 17.3633768,86.2350816 C17.5713433,86.420276 17.7317746,86.6643902 17.8529894,86.9401044 C17.782875,87.4638357 17.7745563,87.9888259 17.9100317,88.5125571 C17.9528134,88.6763491 18.0692746,88.8096739 18.2130687,88.8738813 C18.2154454,88.9192042 18.2154454,88.9632682 18.2154454,89.0060731 C18.2154454,89.0262166 18.2439665,89.0312525 18.2475317,89.0112349 C18.2534736,88.972081 18.2594155,88.9330529 18.2653574,88.8928918 C18.3117042,88.9091325 18.3604278,88.9168122 18.4103398,88.9168122 C20.2154894,88.9239883 22.022897,88.8774065 23.8304234,88.8124436 C23.6906699,88.358837 23.5392702,87.9091331 23.3939313,87.4555265 C23.1965414,86.8393869 24.1150405,86.5773954 24.3106479,87.1878696 C24.4807051,87.7181475 24.6584868,88.2437672 24.8166602,88.7759335 C26.7533636,88.69964 28.6894727,88.607987 30.6221356,88.5403804 C34.732743,88.395473 38.842162,88.3476322 42.9538389,88.2558533 C49.339125,88.1124567 55.7708768,87.818865 62.1660264,88.1060359 C62.387184,87.6087431 62.6347236,87.1229068 62.8694287,86.6324123 C63.1463213,86.0535382 63.9663037,86.5637985 63.6903618,87.1407841 C63.5271972,87.4815871 63.3582095,87.8181097 63.1976593,88.1582832 C64.492875,88.2295408 65.7867835,88.3237117 67.0779586,88.4522525 C69.2812157,88.6711873 71.4632007,89.0602088 73.664081,89.3020568 C75.9016822,89.5486889 78.0907975,89.5047509 80.3106919,89.1132114 C80.7099877,89.0427091 80.945287,88.7870125 81.0427342,88.4697522 C81.0461805,88.4684932 81.0486761,88.4661012 81.050934,88.4621984 C81.1650185,88.3211938 81.2720915,88.2042356 81.3824921,88.1021331 C81.5145211,88.0116132 81.6571268,87.9346902 81.8246884,87.8667059 C82.1372324,87.7408089 82.4628486,87.6640118 82.7932183,87.6123941 C83.1568627,87.5546074 83.5252606,87.5494456 83.8889049,87.5017307 C84.1953882,87.4601847 84.4949789,87.3983693 84.7943319,87.322957 C85.332787,87.1869883 85.8437905,87.0094736 86.3524173,86.7739205 C86.7956831,86.5688344 87.1960484,86.2742356 87.5740722,85.9530725 C88.3560264,85.3475082 89.0332843,84.5746269 89.6252165,83.7712786 C89.9698468,83.301683 90.2942746,82.8144619 90.588993,82.3072232 C91.1023732,81.4283367 91.5396972,80.5155839 91.9817746,79.5952773 C92.142206,79.3225845 92.2886144,79.0433451 92.4224261,78.7581886 C91.5584736,78.4885174 90.6862025,78.2687013 89.7703178,78.2530901 C89.1580643,78.2426406 89.1581831,77.2354652 89.7703178,77.2459146 C90.8207271,77.2636661 91.8143319,77.5236432 92.8015194,77.8333497 C92.8496488,77.6980105 92.8957579,77.5616641 92.9384208,77.4235552 C93.0560704,77.1353771 93.1535176,76.8393934 93.2343275,76.5397587 C93.2817438,76.40379 93.3293979,76.2678213 93.3769331,76.1318526 C93.4838873,75.6609981 93.5908415,75.1888846 93.6989842,74.7167711 C93.914081,73.9613895 94.0839005,73.1946772 94.2087993,72.4178931 C94.3133768,71.9067515 94.3941866,71.3918331 94.4488521,70.8706198 C94.6152254,69.6078735 94.7507007,68.3476452 94.7602077,67.0710503 C94.7459472,66.2841945 94.698412,65.4985976 94.6176021,64.7167776 C94.5831391,64.1854926 94.5249085,63.6567254 94.4464754,63.1317352 C94.3442746,62.3511742 94.2432623,61.578293 94.0733239,60.8076778 C93.9461673,60.2865904 93.8190106,59.7652512 93.6918539,59.2440379 C93.3745563,58.1576733 93.0002165,57.0924593 92.5687157,56.0512917 C92.5450669,55.9859511 92.4249217,55.8423027 92.3525493,55.8410438 C92.2978838,55.8397848 92.2217086,55.8926615 92.2466646,55.9632897 C92.2491602,55.9694586 92.2514181,55.9770125 92.2539137,55.9833073 C92.2289577,55.9241357 92.2051901,55.8637052 92.1802342,55.8045337 C92.1588433,55.749139 92.0756567,55.6384756 92.0114842,55.6397346 C92.007919,55.6397346 92.004235,55.6397346 91.9996004,55.6408676 C92.0162377,55.6284038 92.0316866,55.6119114 92.0471356,55.5931527 C92.4737641,55.0580907 92.7506567,54.354201 93.0560704,53.7347881 C93.3091954,53.2236465 93.5480599,52.6848076 93.6169859,52.1069407 C93.6774745,51.599702 93.5955951,51.0997652 93.2949349,50.6893412 C92.9526813,50.2222636 92.3085792,50.0032029 92.6662817,49.3283954 C93.0727077,48.5604241 93.670463,47.8944293 93.0750845,47.0219635 C92.7720475,46.5775474 92.2919419,46.3334332 91.9354278,45.9468037 C91.5254366,45.4998696 91.3304234,44.9018592 91.3412377,44.291259 C91.3661937,44.3063667 91.3994683,44.2989387 91.4113521,44.2610438 C91.7559824,43.1581866 91.5064225,41.947184 91.1534736,40.8731573 C90.960956,40.2903804 90.5532227,40.1303654 90.0791778,40.101535 C92.1325801,35.8525134 94.054191,31.5353817 95.7667658,27.1189172 C95.8238081,26.9741357 95.879662,26.8294802 95.935397,26.6845728 C96.0187025,26.4680301 95.8428222,26.179852 95.6396092,26.1318853 C94.1588873,25.7881866 92.6163697,25.6786563 91.1083151,25.5277059 Z" id="ðŸ–-Ink" fill="#000000"></path>
                    </g>
                    <g id="HEAD" transform="translate(44.207746, 22.661448)">
                        <path d="M51.1485053,18.1096823 C51.1085757,16.6042067 49.0416259,15.9791284 48.4444648,17.4701258 C48.4073873,17.5100352 48.3671012,17.5484337 48.3293107,17.5828036 C48.516243,17.4129686 48.1253847,17.6939706 48.0618063,17.7287181 C48.0073785,17.7584298 47.9517623,17.7852459 47.896265,17.8129432 C47.5121805,13.9990215 46.2082896,9.88747939 42.8389938,7.97309061 C38.1396629,5.558891 32.7095968,5.08765877 27.5540467,5.32749243 C24.9423433,5.49166204 21.9264718,5.93406386 19.6061593,4.53434175 C18.8831488,4.09823477 18.3035757,3.41171879 17.4865643,3.14217345 C14.9074225,2.40303255 13.737581,5.20877162 14.0888662,7.51608474 C12.9887826,7.52527521 11.897493,8.170497 11.422735,9.23281533 C11.143941,9.86154462 11.1488134,10.5400032 10.908404,11.1709986 C10.1707764,12.7711487 9.11537588,13.9213431 9.71206162,15.8614148 C8.66260299,17.1265531 9.26095246,19.0418232 10.1077923,20.2530776 C10.5259833,20.8830658 11.0240335,21.4878747 11.3303979,22.1930234 C11.6277306,22.8682087 11.1788794,23.6689132 10.9290819,24.3089732 C9.08233891,28.9481493 9.18786708,34.0571728 10.1815907,38.8961474 C8.18748856,39.8128029 7.58902025,42.6782172 8.88934595,44.4824461 C9.33677113,45.12024 9.88259419,45.3569262 10.5016215,45.749347 C11.2850018,46.206101 10.6451778,48.0356353 10.8960449,48.91918 C11.2368724,51.0761721 13.0907456,52.4045107 14.9238222,51.0037814 C16.0870088,50.817328 17.025235,54.4027468 17.8699357,55.3026581 C18.3903275,56.0278245 18.968118,56.6789634 19.5962958,57.2798695 C21.4679947,62.3818427 31.0589366,64.9690247 35.8008116,64.6736705 C40.7664586,64.1228714 44.1163838,59.6552928 46.90575,55.6902948 C48.3381048,53.5776183 49.2696761,51.2130221 49.6084833,48.6340234 C49.9488354,46.0420573 49.7999313,43.4454331 49.5698609,40.8503196 C49.0865467,35.3365374 48.3240819,27.3929445 47.8317359,21.8196131 C49.6109789,21.6643822 51.2024577,20.059574 51.1485053,18.1096823 L51.1485053,18.1096823 Z" id="ðŸŽ¨-Background" fill="#FFFFFF"></path>
                        <path d="M12.3612346,14.7946775 C12.3595709,14.8024831 12.3620665,14.8084003 12.3637302,14.8167095 C12.3640867,14.8143174 12.3644432,14.8130584 12.3650374,14.8101628 C12.3636114,14.803868 12.3625418,14.7997134 12.3612346,14.7946775" id="Fill-4" fill="#4F66AF"></path>
                        <path d="M12.3607711,14.8748361 C12.354235,14.8675341 12.3449657,14.8621205 12.3356963,14.8548185 C12.3354586,14.8550703 12.3353398,14.855322 12.335221,14.8555738 C12.3438961,14.8616169 12.3522148,14.8685412 12.3607711,14.8748361" id="Fill-6" fill="#4F66AF"></path>
                        <path d="M50.8655044,18.822133 C51.4499498,18.3077181 52.370588,18.7813424 52.1726039,19.6282511 C51.9571505,20.550572 51.0240343,21.1808121 50.2537262,21.5597618 C49.4608389,21.9496646 48.6885106,22.0248251 47.8234886,21.982272 L47.8127931,21.979754 L47.8127931,21.979754 C48.0529648,22.9998969 48.1891532,24.0603267 48.3728768,25.0866386 C48.606037,26.3886646 48.8353944,27.6913202 49.0613055,28.9946053 C49.2798486,30.25433 49.556147,31.5156914 49.7240651,32.781711 C49.8934093,34.0596907 50.0559798,35.3385518 50.222353,36.6169093 C50.5000018,38.7520068 50.7241245,40.8968848 50.9604345,43.0381117 L51.0730633,44.0516243 C51.3097092,46.1968923 51.5002486,48.3447466 51.0517236,50.4795466 C50.6313935,52.4803007 49.6844921,54.3465968 48.586191,56.0167455 C47.510588,57.6521467 46.3090167,59.2245994 44.9900335,60.6471089 C42.4458301,63.390529 39.3085062,65.5878082 35.6297562,65.9953365 C34.0457641,66.1708369 32.3539859,65.9755707 30.8648266,65.3656001 L30.765946,65.3246756 C29.2585268,64.694158 27.4125154,63.6145917 27.0201787,61.8430038 C26.779294,60.7562615 27.8363583,59.9078421 28.7631761,60.4235159 C29.1925907,60.6625103 29.5154747,60.9355306 29.86798,61.2778943 L29.930522,61.3390384 C30.2185854,61.6224324 30.3294613,61.7095531 30.6618512,61.9312576 C31.343625,62.3856196 31.8546285,62.6006516 32.6289771,62.8071226 C34.0566972,63.1875831 35.5975511,63.1274044 37.0468996,62.6774487 C40.1240915,61.7221428 42.5113099,59.2293835 44.5563935,56.7299517 C45.666816,55.3726568 46.7207905,53.9488884 47.5336426,52.3669934 C48.3865431,50.7072941 48.7802535,48.9647547 48.7566048,47.0763007 C48.7298662,44.945495 48.451904,42.8063802 48.2694877,40.6856464 C48.083625,38.5236183 47.9117852,36.3623457 47.7603856,34.1972961 C47.6185629,32.1669488 47.6048517,30.1274568 47.5552811,28.0907857 L47.5455264,27.7089458 C47.5164111,26.6277429 47.4962086,25.5461624 47.4730352,24.4647077 C47.4500995,23.3864005 47.3695273,22.2943705 47.4743424,21.2205955 C47.4818292,21.1424135 47.5812967,21.1226477 47.6055396,21.201711 C47.6673354,21.4028943 47.7214067,21.607225 47.772507,21.8126888 C47.7803504,21.8063939 47.7891444,21.8007286 47.7998398,21.7968258 C48.4776919,21.5500678 49.1019481,21.0574331 49.6105748,20.526148 C50.0959093,20.0191611 50.3493908,19.276495 50.8655044,18.822133 Z M13.7789129,3.71481566 C14.2047095,1.86211637 16.1208539,1.44829315 17.5377597,2.34052472 C18.2192958,2.76958147 18.765,3.38836491 19.4016153,3.88011833 C20.0345467,4.36910202 20.7340273,4.76177456 21.4721303,5.03912551 C22.9384727,5.59005049 24.4852685,5.79035251 26.0350352,5.79752864 C29.8069542,5.81502831 33.5017474,4.69202766 37.2792518,4.81729511 C40.2021919,4.91423575 43.3045775,5.82938056 45.4247667,8.06782805 C46.566919,9.27366888 47.3028829,10.8239637 47.6976629,12.4698144 C47.8821726,13.2390252 48.0196984,14.0269017 48.1281865,14.8129462 L48.1547139,15.0094073 C48.2154401,15.4688052 48.3128873,15.9551451 48.321919,16.419453 C48.3301188,16.8364236 48.2305326,17.2727824 48.1765801,17.6854725 C48.0628521,18.5554204 46.7909287,18.4563395 46.6081558,17.6854725 C46.191985,15.9303434 46.3662016,14.1189383 45.8575748,12.3698522 C45.4065845,10.818802 44.5325308,9.46264018 43.2660739,8.53515747 C37.923235,4.62228076 31.0716285,7.89900026 25.184868,7.59458147 C23.746096,7.52017639 22.2861708,7.28462322 20.9290405,6.7597589 C20.2292033,6.4890805 19.5401805,6.15897873 18.9057042,5.74377065 C18.3243634,5.36360125 17.8207316,4.88594779 17.2825929,4.44639306 L17.0451872,4.25524196 C16.6762689,3.96119968 16.0482438,3.50148227 15.6760431,3.89044188 C15.5140751,4.05975155 15.5042756,4.44256954 15.5072422,4.73490025 L15.5090757,4.8670244 C15.5259507,6.10811637 15.7646963,7.3469422 15.3263028,8.54598461 C15.1263004,9.09289369 14.5705121,9.43771653 14.0418852,9.12799391 L14.0145687,9.11138774 C12.8964264,8.40668468 11.4273505,9.8227128 12.2863016,10.9946218 L12.3130458,11.030057 C12.7963111,11.6522604 12.5386603,12.7479522 11.6737107,12.7452148 L11.6425616,12.7446474 C10.1014689,12.6936704 9.41773501,14.7340575 10.7460585,15.6255763 L10.7869278,15.6522371 C11.8653829,16.3359833 10.9194322,17.9798196 9.81411972,17.4154236 C9.90776408,17.4632644 9.74495599,17.462635 9.65178697,17.5950785 C9.56230194,17.7222344 9.55564701,17.8322684 9.57691901,17.9929129 C9.64144806,18.4796304 10.0454974,18.8898026 10.3727773,19.1977465 C11.116228,19.8973558 12.0378169,20.3804223 12.9874516,20.6745175 C16.7914569,21.8526611 20.6940977,20.4115189 24.4004181,19.5411933 C28.2644366,18.6338541 32.6286444,18.2683753 35.9984155,20.8430935 C36.0384639,20.8735606 36.0034067,20.9416708 35.9590801,20.9144771 C33.5407262,19.4266271 30.5788072,19.558693 27.9352553,20.1686637 C24.46875,20.9686128 21.0325484,22.4575958 17.4822623,22.8498907 C18.4789569,24.7139207 18.8960783,26.9154804 18.6298812,29.0475449 C18.4465877,30.5152094 17.8952432,31.7882774 17.2440424,33.0783787 L17.1197694,33.3242429 C16.5391487,34.4822492 16.0894064,35.576219 16.0822315,36.91774 C16.0752201,38.2506108 14.2048283,38.5316128 13.8877685,37.2324823 C13.1679665,34.2820877 15.7902465,31.9581562 16.8601452,29.5251979 C17.7746039,27.4453806 17.8027685,25.0204797 17.0627641,22.8909331 C16.2278081,22.9620648 15.386316,22.9694928 14.5363864,22.8891705 C13.8063644,22.8200531 13.0553081,22.6806852 12.3232658,22.4601138 L12.0304005,23.7643838 C11.6424143,25.5016729 11.282934,27.2378017 11.1739833,29.0422573 C11.0937676,30.3682038 11.0980458,31.7006969 11.2200924,33.0233701 C11.3256206,34.1657589 11.5483231,35.267483 11.7749472,36.3828039 C11.9693662,36.6544895 12.0687148,37.0703271 12.0140493,37.4015619 C13.2761092,37.7865547 14.2687632,38.841571 14.6314569,40.2389011 C14.6535607,40.3240074 14.54114,40.3718483 14.4990713,40.2980727 C13.6385651,38.7855469 11.4227113,38.2289566 10.0210167,39.2282005 C8.68242518,40.1822475 8.15442782,42.1084706 8.91213908,43.6333342 C9.31069136,44.4350976 9.90160498,44.9985311 10.6635537,45.3865227 L10.8167539,45.4627398 C11.2160477,45.6629097 11.5825739,45.8810531 11.8393574,46.283087 C12.172474,46.8045485 12.1836915,47.3557807 12.1522105,47.9516625 L12.1385978,48.1931561 C12.1175525,48.5925857 12.1128037,49.0037324 12.2251056,49.3879572 L12.2506227,49.4733547 C12.2802435,49.5692255 12.311382,49.6536977 12.3654533,49.7452527 C12.3816153,49.7724464 12.5332526,49.9300694 12.5826893,49.9871007 L12.6449604,50.0069924 L12.6449604,50.0069924 L12.7145995,50.010014 L12.7145995,50.010014 C12.7918545,50.0112784 12.8933815,49.975809 12.8600711,50.0003915 L12.869139,49.9948921 C12.8984475,49.9755571 12.9254088,49.9551126 12.9481218,49.9369264 L12.9912544,49.901239 C13.0921479,49.7467635 13.2185915,49.619104 13.3736752,49.5217856 L13.5218662,49.4519129 L13.5218662,49.4519129 C13.9067826,49.0213453 14.5663336,49.2475821 14.8422755,49.676513 C15.0408539,49.9849605 15.1476893,50.2985697 15.1564833,50.6078985 C15.1875,50.5551477 15.2564261,50.5263173 15.3002773,50.5853629 L15.5619136,50.9385584 C16.5629241,52.2935545 17.5467106,53.6570115 18.6841901,54.8921712 C19.3108231,55.57277 19.9848724,56.2123264 20.689463,56.8013982 C21.2910211,57.3043564 22.4321039,57.7883042 22.4495731,58.7044562 C22.4550396,59.0018248 22.2557482,59.2124504 22.0118926,59.3134197 C21.2182344,59.641827 20.2374869,58.5246556 19.6642397,57.9810444 L19.6174252,57.9371144 C18.9158055,57.2861014 18.2755062,56.5715104 17.6846435,55.807316 C16.5370246,54.3228652 15.5774076,52.6143179 15.154463,50.7348026 C15.1346171,51.0627641 15.0017562,51.384179 14.7431646,51.6874647 C14.3988908,52.0910903 13.9276981,52.3741066 13.424419,52.4906871 C12.2841681,52.754693 11.1708935,52.3199709 10.4924472,51.3134249 C9.91901408,50.4624639 9.7501749,49.3388284 9.82416139,48.310802 L9.8332762,48.1874435 C9.84367338,48.0225618 9.85692238,47.7200302 9.8971875,47.5912821 L9.53817782,47.382419 L9.53817782,47.382419 C9.09800176,47.1342762 8.69003081,46.8089585 8.32389085,46.4514112 C6.85231954,45.0141718 6.11397887,42.678406 6.78672095,40.6344693 C7.20752641,39.35586 8.09180018,38.2433088 9.22408891,37.6650642 C9.03483622,37.2016972 8.97154658,36.6514383 8.90013409,36.1645806 L8.8881338,36.0840505 C8.76703785,35.2853603 8.66566901,34.4765984 8.62704665,33.6683401 C8.55479313,32.1588359 8.64261444,30.6352312 8.86650528,29.1432266 C9.23014965,26.7198365 9.98298856,24.1497765 11.3629357,22.1167928 C10.3101496,21.6738874 9.34114437,21.0326943 8.59317782,20.1423512 C7.81158011,19.2119729 7.31329225,17.8799833 7.91770246,16.6984406 C8.07171655,16.3972951 8.27243398,16.1441164 8.50309859,15.943059 C8.10308979,15.1428581 7.97367518,14.1971203 8.22050176,13.2931803 C8.51545775,12.212481 9.31630722,11.369601 10.2837676,10.9760472 C10.0488248,9.95212746 10.2408671,8.85078108 10.9587676,7.99745166 C11.6708451,7.15092068 12.7766329,6.84259909 13.800066,7.03610267 C13.8555634,5.94709419 13.5319674,4.7888424 13.7789129,3.71481566 Z M10.9083803,41.9496894 C11.8467254,41.4632236 12.9588116,41.5405243 13.8960871,42.0015589 L13.9595933,42.0334942 C14.9829003,42.5591852 16.3382062,43.7874275 16.0129489,45.0937135 C15.8225704,45.8576561 15.0213644,46.1185145 14.4000792,45.7887905 C13.8811136,45.5132021 13.7627509,45.0205674 13.5023768,44.5256665 C13.3182967,44.1756731 13.0907218,43.902099 12.8234551,43.6207194 C12.260044,43.0278707 11.6272315,42.5874832 10.9083803,42.2350977 C10.8047535,42.1842354 10.8083187,42.0016848 10.9083803,41.9496894 Z M34.5517289,15.5454135 C34.4637887,15.5028603 34.5276048,15.3569458 34.6161391,15.3836359 C36.9740044,16.096968 39.1723891,17.6981252 40.4860246,19.9205838 C40.5661215,20.0561748 40.5783618,20.27939 40.4860246,20.4135962 L40.4435116,20.4745054 C40.3832604,20.5578249 40.3238182,20.6193275 40.2105581,20.6379445 C39.9976004,20.6729438 39.8125695,20.61415 39.6899287,20.4135962 C38.3957826,18.2952543 36.7377544,16.6047103 34.5517289,15.5454135 Z M50.3364375,15.9648769 C50.5362042,15.6064483 51.0658653,15.6785873 51.1712746,16.0804503 L51.1865303,16.1154244 C51.2434633,16.252426 51.2175643,16.2804679 51.1113803,16.202948 C51.37425,16.4323322 51.4932069,16.7740165 51.4128724,17.1413838 C50.9788759,19.1255194 48.8574982,20.5423635 47.0081408,20.3473492 C46.8467588,20.3303531 46.8247738,20.1202311 46.9710634,20.0575344 C47.6825467,19.7523603 48.3140519,19.256704 48.8218468,18.648496 C49.3153812,18.057284 49.5229912,17.3808397 49.7884754,16.6668782 C49.8880616,16.3988436 50.0430264,16.2058436 50.2613319,16.1004679 C50.2902095,16.0581665 50.3154032,16.0130954 50.3364375,15.9648769 Z M39.8196059,14.6898053 L39.8323917,14.6906614 C40.7826206,14.820713 41.6046232,15.3175023 42.2718988,16.0454384 C42.9145748,16.7464325 43.7256444,17.9031735 43.6561241,18.9318774 C43.6101338,19.6138611 42.6948433,20.0037639 42.3533028,19.3057913 C42.1494956,18.8893242 42.1032676,18.4328219 41.9605431,17.9924344 C41.8295836,17.5888089 41.6487121,17.2055786 41.4321893,16.8461429 C40.9864278,16.1056171 40.3734613,15.4782727 39.7457588,14.9122401 C39.672302,14.8460025 39.7234845,14.6901563 39.8196059,14.6898053 L39.8196059,14.6898053 Z M15.4477077,14.3875898 C15.2370079,14.1750757 15.4561452,13.8127444 15.724125,13.8845056 C17.1374657,14.2635813 18.53714,14.7246159 20.0065722,14.7704423 C20.7405158,14.7932297 21.4703002,14.7319179 22.1973512,14.6313262 L22.5654576,14.5795406 C23.1324145,14.5011477 23.709111,14.4395897 24.2695299,14.5629642 C24.6431567,14.6451749 24.7161232,15.1550575 24.4833195,15.4210777 C23.3839489,16.6774032 21.2634032,16.5572975 19.8053794,16.3455389 C18.2221004,16.1153993 16.6245607,15.5753014 15.4477077,14.3875898 Z M40.9699688,10.4716538 C40.8732346,10.3295161 41.0360427,10.1051678 41.1900568,10.1682421 C42.5946034,10.7433393 44.0666501,12.2406316 44.4535867,13.8071671 C44.5557874,14.2209903 44.0632038,14.5334665 43.773952,14.226278 C43.2349027,13.6538247 42.8543834,12.9776322 42.3987584,12.334173 C41.9446783,11.6927281 41.4133534,11.1230445 40.9699688,10.4716538 Z M17.9566518,11.171263 C17.8439934,11.0520386 17.9573649,10.814597 18.1192223,10.8752793 C19.0336809,11.2183485 19.9550321,11.5152134 20.9157188,11.6709479 C21.8996976,11.8303335 22.8929459,11.7092206 23.8820348,11.7738057 C24.2821624,11.7998664 24.554658,12.4593145 24.1098473,12.6645265 C22.1333332,13.5761462 19.4487821,12.749507 17.9566518,11.171263 Z M20.4815678,9.12649537 C20.3244639,9.00336817 20.4138301,8.6654608 20.6276197,8.7597576 C21.4984648,9.14386915 22.3791734,9.23829185 23.3137157,9.19876021 C23.6589401,9.18403027 23.7315502,9.75874977 23.3951197,9.83630228 C22.3620607,10.0743734 21.3257931,9.78770607 20.4815678,9.12649537 Z" id="ðŸ–-Ink" fill="#000000"></path>
                    </g>
                    <g id="FACE" transform="translate(63.102993, 46.078278)" fill="#000000">
                        <path d="M17.4200585,30.3319145 C16.6211966,29.9866609 15.9084097,29.4107552 15.3872938,28.675073 C15.2061209,28.4193197 15.1591458,28.1492481 15.1971519,27.9022332 C15.2398871,27.6244823 15.3949954,27.3727506 15.6065284,27.2038967 C15.8187166,27.0345198 16.0841371,26.9509873 16.3407433,26.9935698 C16.5637191,27.0305715 16.7856809,27.1599077 16.961347,27.4281462 L16.998048,27.4817876 C17.3078605,27.9258201 17.7115746,28.2901434 18.1715787,28.5249708 C18.6149478,28.7513063 19.1108114,28.8569458 19.6239492,28.7955143 C20.6012533,28.6785584 21.2748605,28.1186271 21.9908315,27.3582498 C22.0795781,27.2622503 22.1683817,27.1632412 22.2576157,27.0626385 C22.3139687,26.9714426 22.3921726,26.9128309 22.4790002,26.8820784 C22.5754068,26.8479331 22.6844651,26.849865 22.7843543,26.8867948 C22.8806978,26.9224136 22.9668241,26.9899098 23.0245741,27.0797429 C23.0794608,27.1651219 23.1105799,27.270596 23.1004825,27.3919175 C23.0349485,28.1799241 22.6460687,28.8831864 22.0936811,29.4353959 C21.4801842,30.0486951 20.6669493,30.4729795 19.9013241,30.6217893 C19.05783,30.7857091 18.1983319,30.66827 17.4200585,30.3319145 L17.4200585,30.3319145 Z M20.299235,18.1753821 C21.196626,18.7532548 22.5639742,20.1007412 21.5985881,21.5333579 C20.4622363,22.7965434 18.8261463,21.348215 18.0199095,20.6931924 C17.2723289,20.1855462 16.4323803,21.4911741 17.125986,22.0839366 C22.95187,26.6533956 25.3161371,18.3264878 20.7531228,17.4959456 C20.2507186,17.4044234 20.0641244,17.9966109 20.299235,18.1753821 Z M9.85919498,12.8599186 C9.95834492,11.5560952 11.8327381,11.2600204 12.019195,12.5502121 C12.1861624,13.705946 11.9896043,14.7676348 11.4982091,15.808173 C11.02868,16.8022552 9.84855692,16.3384691 9.75930956,15.4332701 C9.63967718,14.2198885 9.79751805,13.6709714 9.85919498,12.8599186 Z M24.1273283,12.2826937 C24.3886532,11.9201106 24.7659639,11.6725972 25.2180238,11.8124687 C26.6304137,12.2497087 26.2141241,14.3739677 25.7180942,15.4079592 C25.4485695,15.9694596 24.577368,16.111849 24.1836576,15.6174517 C23.5419322,14.8112078 23.2346171,13.2011119 24.0504401,12.406954 C24.072544,12.3659116 24.0971435,12.3244915 24.1273283,12.2826937 Z M11.4783156,7.15478571 L11.7014186,7.11341661 C12.391606,6.98696007 13.2497746,6.86544938 13.7380207,7.45328735 C13.9969688,7.76500815 14.0860973,8.34438584 13.7380207,8.64276158 C13.1257672,9.16775179 12.4488658,8.96430235 11.7151598,9.00874397 C11.1105119,9.04550587 10.5293939,9.15151109 9.94696875,9.32789269 C8.66922227,9.71477397 7.62808231,10.4210558 6.53679269,11.1965809 C6.39359287,11.2983056 6.2474221,11.1042984 6.31575396,10.9624126 C6.94571435,9.65522472 8.16653741,8.58144977 9.38938072,7.92691161 C10.0420392,7.57754762 10.7562557,7.28773288 11.4783156,7.15478571 Z M22.8398224,6.56922492 L23.0105843,6.60624879 C24.8688827,7.0177566 27.2832472,7.83977723 28.1632411,9.7734855 C28.1967729,10.0469187 28.1613434,10.1055209 28.1325328,10.1438082 L28.1229404,10.156549 C28.0992005,10.1892441 28.0802578,10.2343142 27.9683852,10.2715289 C27.9373405,10.2636928 27.9059869,10.2553934 27.8743011,10.2465964 C27.4709273,10.1346079 27.1517806,9.98032789 26.8428127,9.82024397 L26.5078132,9.64539838 C26.1191468,9.44350774 25.7270488,9.24896496 25.311515,9.10534613 C24.42473,8.79891993 23.5125955,8.5830618 22.5863292,8.46779845 C22.3855681,8.44283731 22.1922477,8.37105577 22.0397319,8.24803392 C21.8949637,8.1312615 21.7843702,7.96958737 21.7339457,7.75468721 C21.6685956,7.47657208 21.6873758,7.26601612 21.8282299,7.01511555 C21.9341435,6.82669459 22.0856889,6.69609425 22.2597014,6.62109909 C22.4370995,6.54464477 22.6390656,6.52662069 22.8398224,6.56922492 Z" id="ðŸ–-Ink"></path>
                    </g>
                    <g id="ACCESORIES" transform="translate(49.793134, 53.002609)" fill="#000000">
                        <path d="M44.244717,12.0178318 C42.8019045,13.5972088 40.3932953,14.0504378 38.4737047,13.2034032 C33.5447786,11.0217352 35.9573094,4.21700594 39.7585814,2.38961194 C40.2334582,2.26421859 40.8676967,1.96672414 41.4460814,1.89924338 C41.4983702,1.87204964 41.612217,1.95073523 41.7501879,1.87633014 C45.941724,2.37211226 46.8962311,9.2652212 44.244717,12.0178318 M28.3468033,12.4220868 C26.7285858,14.6959114 23.7200823,15.3974091 21.2620365,14.3403784 C16.406077,12.3144449 18.1283966,6.28033079 21.4507513,3.9147274 C28.4689687,1.12094853 31.3670717,8.22959302 28.3468033,12.4220868 M17.8201307,7.38394331 C17.8156149,7.38167717 17.811099,7.3805441 17.8064643,7.37827795 C17.8321334,7.36631774 17.8578024,7.35435753 17.8833526,7.34214553 C17.8750339,7.36518467 17.8660022,7.38797202 17.8579212,7.41101115 C17.8453244,7.40182068 17.8342724,7.39111944 17.8201307,7.38394331 M47.5854916,4.92605747 C47.1892857,4.92693875 46.6169617,4.99593027 46.2889687,5.28712988 C45.4801571,2.39741755 42.4947082,-0.277011024 39.8983349,1.67313249 C37.8537267,2.36972022 36.3365216,3.9146015 35.4742328,5.96848408 C33.9194749,4.98875414 31.474739,5.40710965 30.1265216,6.702715 C29.243555,3.61181937 27.0704828,2.52948343 24.4839732,2.36972022 C21.660857,1.87985525 18.8470101,4.78442342 17.9690348,7.11452387 C17.2390128,7.02652192 16.1481985,6.78039341 15.4614335,7.25766869 C11.0041756,6.01934644 3.21137192,5.33660737 2.30523195,6.02463412 C1.65946611,6.28712922 1.30509111,7.9018833 2.20707174,7.98900398 C2.99306646,7.87078676 2.11532879,6.80582459 2.90762192,6.68962172 C7.12910519,6.41239667 11.2272346,7.31306334 15.4040348,7.69100594 C15.7769485,8.22241689 16.9818473,8.40018337 17.6246422,8.18666217 C16.612261,12.1393223 18.7976923,14.8284808 22.0722742,15.6339694 C27.1427364,16.8678853 31.5541228,12.0626511 30.2282469,7.06454279 C31.7642284,6.25502551 33.5309934,6.28977306 35.2042328,6.71618598 C32.4082117,17.6176015 48.9810066,17.1284919 46.3925955,5.66066608 C48.1151527,6.56838297 48.4892548,5.10923751 47.5854916,4.92605747" id="ðŸ–-Ink"></path>
                    </g>
                </g>
            </g>
        </g>
    </g>
</svg>